<?xml version="1.0" standalone="no"?>
<!DOCTYPE svg PUBLIC "-//W3C//DTD SVG 1.1//EN" "http://www.w3.org/Graphics/SVG/1.1/DTD/svg11.dtd" >
<svg xmlns="http://www.w3.org/2000/svg">
<metadata>
<json>
<![CDATA[
{
	"fontFamily": "iconfont",
	"majorVersion": 1,
	"minorVersion": 0,
	"version": "Version 1.0",
	"fontId": "iconfont",
	"psName": "iconfont",
	"subFamily": "Regular",
	"fullName": "iconfont",
	"description": "Font generated by IcoMoon."
}
]]>
</json>
</metadata>
<defs>
<font id="iconfont" horiz-adv-x="1024">
<font-face units-per-em="1024" ascent="960" descent="-64" />
<missing-glyph horiz-adv-x="1024" />
<glyph unicode="&#x20;" horiz-adv-x="512" d="" />
<glyph unicode="&#xe900;" glyph-name="flash" data-tags="flash" d="M511.979 89.005c-198.27 0-358.996 160.726-358.996 358.996 0 198.265 160.726 358.996 358.996 358.996 198.265 0 358.996-160.729 358.996-358.996-0.002-198.271-160.731-358.996-358.996-358.996zM511.979 735.195c-158.616 0-287.196-128.585-287.196-287.196 0-158.619 128.582-287.2 287.196-287.2s287.196 128.582 287.196 287.2c0 158.611-128.582 287.196-287.196 287.196zM511.979 412.097h-179.498c-19.828 0-35.899 16.076-35.899 35.902 0 19.823 16.073 35.896 35.899 35.896h143.599v143.602c0 19.823 16.073 35.899 35.899 35.899s35.899-16.076 35.899-35.899v-179.498c0-19.826-16.073-35.902-35.899-35.902z" />
<glyph unicode="&#xe901;" glyph-name="sel" data-tags="sel" d="M511.979 89.005c-198.27 0-358.996 160.726-358.996 358.996 0 198.265 160.726 358.996 358.996 358.996 198.265 0 358.996-160.729 358.996-358.996-0.002-198.273-160.731-358.996-358.996-358.996zM511.979 735.193c-158.616 0-287.196-128.585-287.196-287.196 0-158.619 128.582-287.2 287.196-287.2s287.196 128.582 287.196 287.2c0 47.883-11.886 92.932-32.611 132.631l-265.659-265.33c-7.011-7.008-16.198-10.512-25.381-10.512-9.19 0-18.373 3.503-25.385 10.512l-143.599 143.242c-7.011 7.003-10.518 16.184-10.518 25.362s3.508 18.353 10.518 25.359c14.023 14.012 36.74 14.012 50.763 0l118.22-117.886 249.283 248.971c-52.553 58.111-128.305 94.846-212.826 94.846z" />
<glyph unicode="&#xe902;" glyph-name="add" data-tags="add" d="M806.466 405.929h-252.417v-252.417c0-23.235-18.835-42.070-42.070-42.070s-42.070 18.834-42.070 42.070v252.417h-252.417c-23.235 0-42.070 18.835-42.070 42.070s18.835 42.070 42.070 42.070h252.417v252.419c0 23.235 18.835 42.070 42.070 42.070s42.070-18.835 42.070-42.070v-252.417h252.417c23.235 0 42.070-18.835 42.070-42.070s-18.835-42.072-42.070-42.072z" />
<glyph unicode="&#xe903;" glyph-name="minus" data-tags="minus" d="M217.491 490.069h588.974c23.235 0 42.070-18.835 42.070-42.070s-18.835-42.070-42.070-42.070h-588.974c-23.235 0-42.070 18.835-42.070 42.070s18.834 42.070 42.070 42.070z" />
<glyph unicode="&#xe904;" glyph-name="refine" data-tags="refine" d="M812.45 671.606l-174.106-174.103c-6.717-6.722-24.261-20.232-24.039-52.088v-283.247c0-22.665-18.372-41.036-41.033-41.036 44.533 0-25.476-10.76-47.049 9.533 0 0-48.292 45.613-76.062 72.541 16.268-15.778-41.036 18.372-41.036 41.036v201.173c1.502 34.425-17.322 45.366-24.044 52.088l-174.098 174.103c-2.105 2.105-14.74 34.299-7.046 65.075 7.694 30.778 18.376 41.036 41.041 41.036h533.472c22.668 0 32.062-14.104 41.041-41.036 8.974-26.928-4.936-62.97-7.041-65.075zM303.012 695.645l140.108-140.108c40.178-36.325 48.075-78.868 48.075-65.075v-210.724c-16.238 11.273 41.041-39.018 41.041-39.018v249.742c1.284-1.735-16.025 0.977 48.075 65.075l140.108 140.108h-417.406z" />
<glyph unicode="&#xe905;" glyph-name="up" data-tags="up" d="M240.527 258.173l271.45 270.977 271.449-270.977c20.037-20.021 52.485-20.021 72.522 0 10.011 10.011 15.026 23.114 15.026 36.227 0 13.114-5.015 26.227-15.026 36.233l-307.707 307.199c-10.016 10.011-23.135 15.011-36.263 15.011-13.119 0-26.243-5.001-36.259-15.011l-307.714-307.201c-10.005-10.005-15.022-23.119-15.022-36.233s5.015-26.217 15.022-36.227c20.043-20.021 52.49-20.021 72.522 0.002z" />
<glyph unicode="&#xe906;" glyph-name="down" data-tags="down" d="M783.431 637.827l-271.45-270.977-271.449 270.977c-20.037 20.021-52.485 20.021-72.522 0-10.011-10.011-15.026-23.114-15.026-36.227s5.015-26.227 15.026-36.233l307.707-307.199c10.016-10.011 23.135-15.011 36.263-15.011 13.119 0 26.243 5.001 36.259 15.011l307.714 307.201c10.005 10.005 15.022 23.119 15.022 36.233s-5.015 26.217-15.022 36.227c-20.043 20.021-52.49 20.021-72.522-0.002z" />
<glyph unicode="&#xe907;" glyph-name="minwifi" data-tags="minwifi" d="M926.451 485.987c-14.46 1.718-20.754 14.346-20.754 14.346-79.556 134.653-225.772 225.25-393.497 225.25s-313.941-90.596-393.497-225.25c0 0-7.288-11.292-22.915-12.438-51.814-3.804-26.786 56.294-26.786 56.294 92.264 147.941 256 246.709 443.197 246.709s350.931-98.768 443.197-246.709c0-0.002 24.484-64.545-28.946-58.202zM512.2 660.268c148.251 0 277.219-82.364 343.797-203.792 0 0 22.931-61.947-29.825-58.971-14.68 0.826-20.887 14.229-20.887 14.229-53.126 108.397-164.224 183.221-293.085 183.221s-239.958-74.824-293.085-183.221c0 0-8.753-10.407-24.061-11.43-44.904-4.083-26.651 56.172-26.651 56.172 66.578 121.429 195.545 203.792 343.797 203.792zM512.2 529.64c109.507 0 203.138-67.442 241.98-162.999 0 0 11.427-55.388-30.514-59.582-20.119-2.015-23.072 12.299-23.072 12.299-22.543 83.333-97.927 144.97-188.393 144.97s-165.85-61.637-188.393-144.97c0 0-4.556-11.864-24.085-11.408-41.519 0.974-29.502 58.691-29.502 58.691 38.841 95.559 132.471 162.999 241.978 162.999zM512.2 301.043c54.109 0 97.97-43.86 97.97-97.97s-43.86-97.97-97.97-97.97-97.97 43.86-97.97 97.97c0 54.111 43.862 97.97 97.97 97.97zM512.2 170.418c18.036 0 32.657 14.62 32.657 32.657s-14.62 32.657-32.657 32.657c-18.036 0-32.657-14.621-32.657-32.657s14.621-32.657 32.657-32.657z" />
<glyph unicode="&#xe908;" glyph-name="rmb" data-tags="rmb" d="M679.648 427.392h-139.726v-55.891h139.726c15.435 0 27.945-12.511 27.945-27.945s-12.511-27.945-27.945-27.945h-139.726v-111.781c0-15.431-12.511-27.945-27.942-27.945-15.435 0-27.948 12.514-27.948 27.945v111.782h-139.727c-15.435 0-27.942 12.511-27.942 27.945s12.508 27.945 27.942 27.945h139.726v55.891h-139.726c-15.435 0-27.942 12.514-27.942 27.945s12.508 27.945 27.942 27.945h139.726v55.891c0 0.707 0.352 1.302 0.405 1.995l-131.242 131.243c-10.916 10.907-10.916 28.604 0 39.518 10.913 10.913 28.604 10.913 39.52 0l119.264-119.265 119.262 119.265c10.913 10.913 28.608 10.913 39.52 0 10.916-10.913 10.916-28.611 0-39.518l-131.241-131.245c0.076-0.685 0.403-1.288 0.403-1.995v-55.891h139.726c15.435 0 27.945-12.514 27.945-27.945 0-15.43-12.512-27.944-27.946-27.944z" />
<glyph unicode="&#xe909;" glyph-name="cargo" data-tags="cargo" d="M991.103 534.136v-410.251c0-62.176-50.56-112.736-112.736-112.736h-732.777c-62.179 0-112.739 50.56-112.739 112.736v410.251c-33.536 19.554-28.184-0.857-28.184 40.692v197.287c0 62.182 22.376 112.736 84.555 112.736h817.33c62.176 0 112.739-50.553 112.739-112.736v-197.287c-0.001-41.548 5.348-21.137-28.188-40.692zM399.244 828.483h-310.022c-31.076 0-28.187-25.295-28.187-56.368v-197.287h281.842c15.566 0 28.184-12.618 28.184-28.184s-12.618-28.184-28.184-28.184c-0.003 0-0.003 0-0.003 0h-253.655v-394.575c0-31.073 25.295-56.365 56.371-56.365h253.655v760.962h-0.001zM568.347 67.52v760.962h-112.736v-760.965l112.736 0.003zM962.919 772.115c0 31.073-25.292 56.368-56.368 56.368h-281.836v-760.962h253.652c31.076 0 56.368 25.292 56.368 56.365v394.575h-253.652c0 0 0 0-0.003 0-15.563 0-28.181 12.618-28.181 28.184s12.618 28.184 28.181 28.184v0.003l281.839-0.003v197.287zM709.267 462.092h140.916c15.566 0 28.187-12.618 28.187-28.184s-12.62-28.184-28.187-28.184h-140.916c-15.566 0-28.187 12.618-28.187 28.184 0.001 15.567 12.621 28.184 28.187 28.184z" />
<glyph unicode="&#xe90a;" glyph-name="deliver" data-tags="deliver" d="M1019.604 461.352c0-0.003 0-0.003 0-0.003v-213.644c0-58.917-47.908-106.825-106.825-106.825h-2.692c-12.771-75.717-78.196-133.533-157.545-133.533-79.347 0-144.771 57.816-157.545 133.531h-162.926v53.412h162.927c12.774 75.714 78.198 133.531 157.545 133.531 79.349 0 144.771-57.814 157.545-133.525h2.692c29.447 0 53.412 23.966 53.412 53.409v214.073l-0.459 320.047c0 29.447-23.992 53.412-53.461 53.412h-641.459c-29.47 0-53.461-23.966-53.461-53.412v4.775c0-0.257-0.139-0.465-0.147-0.718 0.008-0.251 0.147-0.463 0.147-0.718 0-48.899-34.742-104.974-58.756-125.054l-64.864-27.59c-16.371-13.719-35.92-37.768-35.92-74.355l0.368-363.874c0-14.75-11.956-26.706-26.703-26.706-14.75 0-26.709 11.956-26.709 26.706l-0.414 363.874c0 60.191 34.507 98.086 55.050 115.299l63.195 26.185c15.292 12.779 41.293 54.376 41.293 85.516v-3.338c0 58.917 47.953 106.827 106.921 106.827h641.965c58.917 0 106.825-47.908 106.825-106.825v-320.006l0.001-0.47zM752.541 274.408c-58.997 0-106.822-47.828-106.822-106.825 0-59 47.825-106.825 106.822-106.825 59 0 106.825 47.825 106.825 106.825 0 58.997-47.825 106.825-106.825 106.825zM271.833 7.347c-88.497 0-160.237 71.741-160.237 160.237s71.741 160.237 160.237 160.237 160.237-71.741 160.237-160.237-71.741-160.237-160.237-160.237zM271.833 274.408c-59 0-106.825-47.828-106.825-106.825 0-59 47.825-106.825 106.825-106.825 58.997 0 106.825 47.825 106.825 106.825 0 58.997-47.828 106.825-106.825 106.825zM164.039 785.882c-0.008-0.251-0.147-0.463-0.147-0.718v1.437c0.001-0.256 0.139-0.465 0.147-0.718zM245.127 648.295c14.75 0 26.706-11.956 26.706-26.706v-80.119c0.833-31.713-19.196-52.58-53.415-53.412-34.216-0.836-80.116 0-80.116 0-14.75 0-26.706 11.956-26.706 26.706s11.956 26.706 26.706 26.706h80.116v80.119c0 14.75 11.956 26.706 26.708 26.706z" />
<glyph unicode="&#xe90b;" glyph-name="comment" data-tags="comment" d="M999.162 159.396c-105.185-28.362-193.079-95.892-247.505-190.16-7.635-13.226-24.511-17.746-37.734-10.113-13.224 7.638-17.748 24.511-10.11 37.737 61.787 107.021 161.569 183.704 280.98 215.876 14.726 3.989 29.867-4.751 33.854-19.484 3.963-14.721-4.755-29.87-19.485-33.856zM674.544 202.457c-5.099-4.179-11.303-6.26-17.508-6.26s-12.409 2.080-17.508 6.26c-9.442 7.718-231.326 191.589-231.326 379.969 0 55.845 23.879 103.091 60.937 141.37-34.81 26.296-76.647 44.194-115.969 52.218-42.301 8.633-142.467 32.558-186.494 82.627 0-55.248-9.395-103.461-7.094-276.215 4.252-318.884 288.038-355.833 333.246-359.32-0.37-0.005-0.712-0.086-1.086-0.088-0.458 0.023-0.848 0.268-1.315 0.268-0.458 0-0.837-0.24-1.29-0.262 2.729-0.011 4.699-0.047 6.248-0.091-0.785 0.050-1.503 0.094-2.558 0.174 24.82 0.224 48.368 3.995 70.754 11.348 14.541-15.177 29.882-29.066 46.229-40.878-26.829-12.431-51.138-20.461-84.359-23.861 0.039-0.585 0.34-1.083 0.34-1.677v-138.124c0-15.256-12.368-27.621-27.624-27.621s-27.624 12.365-27.624 27.621v138.122c0 0.821 0.398 1.517 0.467 2.321-145.431 16.903-377.625 127.281-366.677 412.068-0.591 25.893 1.915 243.411 7.094 331.463 13.813 85.463 117.564-59.947 193.383-78.569 52.551 45.642 156.225 105.15 364.65 70.369 15.053-2.492 23.489-19.050 19.577-33.801-3.925-14.726-19.053-23.489-33.801-19.577-97.712 26.017-199.232 14.907-288.715-30.282 49.749-13.423 98.163-36.856 138.351-66.94 51.254 38.248 118.663 55.466 179.79 75.93 72.715 24.345 219.561 87.168 227.87 55.246-8.563 32.9-3.597-160.806-6.66-303.839-6.587-307.326-221.886-372.252-231.328-379.97zM857.282 831.016c-39.709-6.906-157.947-46.37-200.246-55.003-89.757-18.317-193.585-86.84-193.585-193.588 0-134.37 142.922-275.945 193.557-321.889 45.455 23.552 180.401 86.923 193.613 321.889 10.727 190.737 3.207 101.836 6.661 248.591zM320.144-3.14c7.635-13.226 3.111-30.1-10.113-37.737-13.221-7.633-30.1-3.113-37.734 10.113-54.426 94.268-142.32 161.798-247.502 190.16-14.732 3.986-23.447 19.136-19.484 33.856 3.986 14.732 19.125 23.473 33.854 19.484 119.408-32.172 219.189-108.853 280.979-215.876z" />
<glyph unicode="&#xe90c;" glyph-name="refund" data-tags="refund" d="M610.188 372.448c13.945 0 25.252-11.308 25.252-25.252 0-13.949-11.308-25.254-25.252-25.254h-126.262v-101.007c0-13.944-11.305-25.252-25.249-25.252-13.947 0-25.252 11.308-25.252 25.252v101.007h-126.26c-13.947 0-25.254 11.305-25.254 25.254 0 13.944 11.308 25.252 25.254 25.252h126.26v50.501h-126.26c-13.947 0-25.254 11.308-25.254 25.252 0 13.947 11.308 25.252 25.254 25.252h126.26v50.506c0 0.639 0.315 1.174 0.363 1.803l-118.593 118.59c-9.861 9.861-9.861 25.851 0 35.711 9.861 9.864 25.851 9.864 35.711 0l107.769-107.769 107.767 107.769c9.861 9.864 25.851 9.864 35.711 0 9.864-9.861 9.864-25.851 0-35.711l-118.59-118.591c0.065-0.624 0.361-1.165 0.361-1.803v-50.506h126.262c13.945 0 25.252-11.305 25.252-25.252 0-13.944-11.308-25.252-25.252-25.252h-126.262v-50.501l126.262 0.001zM1012.203 358.92l-124.99-124.991c-9.861-9.859-25.843-9.866-35.711 0.002l-124.989 124.989c-9.869 9.871-9.861 25.853-0.002 35.711 9.861 9.861 25.843 9.869 35.713 0l78.223-78.223c50.352 145.791 13.911 307.494-96.078 417.484-157.529 157.529-413.856 157.529-571.387 0-157.529-157.529-157.526-413.853 0-571.383 115.176-115.175 287.113-149.975 438.016-88.625 12.932 5.258 27.663-0.97 32.895-13.873 5.248-12.921-0.97-27.646-13.888-32.898-169.743-69.023-363.157-29.893-492.734 99.681-177.225 177.228-177.222 465.589 0.003 642.809 177.222 177.225 465.581 177.225 642.806 0 121.252-121.252 163.236-298.381 111.601-459.784l84.811 84.811c9.861 9.861 25.846 9.871 35.713 0.003 9.869-9.868 9.859-25.849-0.002-35.713z" />
<glyph unicode="&#xe90d;" glyph-name="messge" data-tags="messge" d="M779.15 568.229c0-29.514-23.923-53.437-53.434-53.437-29.509 0-53.434 23.923-53.434 53.437 0 29.506 23.925 53.432 53.434 53.432 29.511 0 53.434-23.925 53.434-53.432zM244.809 568.229c0 29.506 23.923 53.432 53.434 53.432s53.434-23.925 53.434-53.432c0-29.514-23.923-53.437-53.434-53.437s-53.434 23.923-53.434 53.437zM912.735 194.188h-374.036v53.434h374.036c29.456 0 53.434 23.978 53.434 53.437v534.341c0 29.453-23.978 53.432-53.434 53.432h-801.512c-29.453 0-53.434-23.978-53.434-53.432v-534.341c0-29.458 23.981-53.437 53.434-53.437h106.606c0.045 0 0.083-0.024 0.131-0.024 0.045 0 0.083 0.027 0.134 0.027 14.753 0 26.714-11.963 26.714-26.72v-175.972l194.682 194.617c4.849 4.961 11.574 8.074 19.057 8.074 14.756 0 30.308-12.408 26.718-26.72-5.009-19.963-26.718-37.853-26.718-37.853l-221.554-221.477c-2.463-2.468-5.424-4.422-8.694-5.779-3.264-1.352-6.73-2.060-10.205-2.060-3.484 0-6.946 0.708-10.212 2.060-6.535 2.709-11.736 7.913-14.446 14.446-1.352 3.264-2.063 6.732-2.063 10.212v213.734h-80.151c-58.94 0-106.868 47.931-106.868 106.871v534.341c0.001 58.938 47.929 106.863 106.869 106.863h801.512c58.94 0 106.868-47.926 106.868-106.863v-534.341c0.001-58.941-47.927-106.871-106.868-106.871zM458.546 568.229c0 29.506 23.925 53.432 53.434 53.432s53.434-23.925 53.434-53.432c0-29.514-23.925-53.437-53.434-53.437s-53.434 23.923-53.434 53.437z" />
<glyph unicode="&#xe90e;" glyph-name="scan" data-tags="scan" d="M994.222 422.619h-964.487c-14.018 0-25.381 11.363-25.381 25.384 0 14.015 11.363 25.379 25.381 25.379h964.487c14.018 0 25.381-11.363 25.381-25.379 0-14.021-11.364-25.384-25.381-25.384zM892.697 777.956c0 27.982-22.777 50.762-50.762 50.762h-253.813v50.763h253.812c55.993 0 101.525-45.529 101.525-101.525v-253.812h-50.762v253.812zM131.261 777.956v-253.812h-50.763v253.812c0 55.996 45.531 101.525 101.525 101.525h253.813v-50.762h-253.813c-27.983-0.001-50.762-22.78-50.762-50.763zM131.261 118.044c0-27.982 22.78-50.762 50.762-50.762h253.813v-50.762h-253.813c-55.993 0-101.525 45.531-101.525 101.525v253.812h50.762l0.001-253.813zM892.697 118.044v253.813h50.762v-253.812c0-55.993-45.531-101.525-101.525-101.525h-253.812v50.762h253.812c27.986 0 50.763 22.78 50.763 50.762z" />
<glyph unicode="&#xe90f;" glyph-name="flow" data-tags="flow" d="M852.329 927.585h-185.642c-68.262 0-123.767-55.505-123.767-123.764v-123.764c0-68.262 55.505-123.767 123.767-123.767h185.642c68.259 0 123.764 55.505 123.764 123.767v123.764c0 68.259-55.506 123.764-123.764 123.764zM914.212 680.057c0-34.115-27.766-61.881-61.881-61.881h-185.643c-34.112 0-61.884 27.766-61.884 61.881v123.764c0 34.109 27.773 61.878 61.884 61.878h185.642c34.115 0 61.881-27.769 61.881-61.878v-123.764h0.001zM852.329 494.412h-185.642c-68.262 0-123.767-55.505-123.767-123.764v-278.468c0-68.262 55.505-123.764 123.767-123.764h185.642c68.259 0 123.764 55.502 123.764 123.764v278.468c0 68.259-55.506 123.764-123.764 123.764zM914.212 92.18c0-34.112-27.766-61.878-61.881-61.878h-185.643c-34.112 0-61.884 27.766-61.884 61.878v278.468c0 34.109 27.773 61.881 61.884 61.881h185.642c34.115 0 61.881-27.773 61.881-61.881v-278.468h0.001zM357.274 927.585h-185.643c-68.262 0-123.767-55.505-123.767-123.764v-278.471c0-68.256 55.505-123.761 123.767-123.761h185.642c68.259 0 123.767 55.505 123.767 123.761v278.471c0.001 68.259-55.507 123.764-123.766 123.764zM419.155 525.35c0-34.109-27.766-61.875-61.881-61.875h-185.643c-34.112 0-61.884 27.766-61.884 61.875v278.471c0 34.109 27.773 61.878 61.884 61.878h185.642c34.115 0 61.881-27.769 61.881-61.878l0.001-278.471zM357.274 339.707h-185.643c-68.262 0-123.767-55.502-123.767-123.761v-123.767c0-68.262 55.505-123.764 123.767-123.764h185.642c68.259 0 123.767 55.502 123.767 123.764v123.768c0.001 68.259-55.507 123.76-123.766 123.76zM419.155 92.18c0-34.112-27.766-61.878-61.881-61.878h-185.643c-34.112 0-61.884 27.766-61.884 61.878v123.767c0 34.109 27.773 61.878 61.884 61.878h185.642c34.115 0 61.881-27.769 61.881-61.878l0.001-123.767z" />
<glyph unicode="&#xe910;" glyph-name="list" data-tags="list" d="M357.273 401.589h-185.642c-68.262 0-123.767-55.505-123.767-123.763v-185.645c0-68.261 55.505-123.765 123.767-123.765h185.642c68.259 0 123.767 55.505 123.767 123.766v185.645c-0.001 68.259-55.508 123.762-123.767 123.762zM419.154 92.182c0-34.115-27.766-61.881-61.881-61.881h-185.642c-34.112 0-61.884 27.766-61.884 61.881v185.645c0 34.109 27.773 61.881 61.884 61.881h185.642c34.115 0 61.881-27.773 61.881-61.881v-185.645zM357.273 927.585h-185.642c-68.262 0-123.767-55.505-123.767-123.763v-185.645c0-68.259 55.505-123.767 123.767-123.767h185.642c68.259 0 123.767 55.508 123.767 123.767v185.644c-0.001 68.259-55.508 123.764-123.767 123.764zM419.154 618.176c0-34.112-27.766-61.881-61.881-61.881h-185.642c-34.112 0-61.884 27.769-61.884 61.881v185.645c0 34.109 27.773 61.878 61.884 61.878h185.642c34.115 0 61.881-27.769 61.881-61.878v-185.645zM573.862 803.815h371.289c17.088 0 30.941 13.852 30.941 30.941s-13.852 30.941-30.941 30.941h-371.289c-17.088 0-30.941-13.852-30.941-30.941-0.001-17.088 13.851-30.941 30.941-30.941zM945.151 618.169h-371.289c-17.088 0-30.941-13.852-30.941-30.941 0-17.085 13.852-30.941 30.941-30.941h371.289c17.088 0 30.941 13.856 30.941 30.941 0.001 17.090-13.851 30.941-30.941 30.941zM945.151 339.702h-371.289c-17.088 0-30.941-13.852-30.941-30.941 0-17.085 13.852-30.941 30.941-30.941h371.289c17.088 0 30.941 13.856 30.941 30.941 0.001 17.089-13.851 30.941-30.941 30.941zM945.151 92.175h-371.289c-17.088 0-30.941-13.852-30.941-30.941 0-17.085 13.852-30.941 30.941-30.941h371.289c17.088 0 30.941 13.856 30.941 30.941 0.001 17.089-13.851 30.941-30.941 30.941z" />
<glyph unicode="&#xe911;" glyph-name="shipit" data-tags="shipit" d="M1003.207 544.937c-12.926-4.705-27.218 1.96-31.922 14.884l-93.702 257.448c-4.705 12.924 1.96 27.218 14.884 31.922 12.926 4.705 27.22-1.96 31.925-14.886l93.702-257.446c4.704-12.926-1.961-27.217-14.887-31.922zM918.785 587.327c2.503-8.687 4.144-17.743 4.144-27.245v-448.316c0-54.945-44.68-99.625-99.625-99.625h-622.654c-54.948 0-99.628 44.68-99.628 99.625v448.315c0 9.435 1.739 18.386 4.2 27.041-1.228 4.717-1.527 9.716 0.266 14.642l93.703 257.446c4.705 12.926 18.996 19.591 31.922 14.886 0.019-0.007 0.033-0.025 0.052-0.033 4.56 5.815 11.332 9.793 19.298 9.793h547.939c12.353 0 22.144-9.156 24.107-20.951 0.73-1.258 1.744-2.281 2.259-3.696l93.702-257.446c1.765-4.856 1.486-9.777 0.315-14.437zM873.117 560.082c0 18.346-10.090 34.234-24.904 42.879v46.187l-67.297 184.899h-530.453c-2.453 0-4.674 0.737-6.914 1.397l-64.923-178.376c7.108 1.617 14.433 2.64 22.025 2.64l572.844-0.005c13.755 0 24.906-11.151 24.906-24.906 0-13.753-11.151-24.906-24.906-24.906h-149.437c-0.005 0-0.010 0.002-0.015 0.002h-423.391c-27.461 0-49.815-22.353-49.815-49.81v-124.534c0-27.459 22.353-49.81 49.815-49.81h622.654c27.461 0 49.812 22.351 49.812 49.81v124.534zM873.117 349.779c-14.712-8.58-31.583-13.856-49.812-13.856h-622.654c-18.229 0-35.102 5.275-49.815 13.852v-238.010c0-27.459 22.353-49.81 49.815-49.81h622.654c27.461 0 49.812 22.351 49.812 49.81v238.013zM798.398 111.767h-99.623c-13.755 0-24.908 11.151-24.908 24.906s11.153 24.906 24.908 24.906h99.623c13.755 0 24.908-11.151 24.908-24.906s-11.152-24.906-24.908-24.906zM52.672 559.821c-4.705-12.924-18.999-19.589-31.925-14.884-12.924 4.705-19.589 18.996-14.884 31.922l93.702 257.446c4.705 12.926 18.996 19.591 31.922 14.886s19.591-18.999 14.886-31.922l-93.701-257.448z" />
<glyph unicode="&#xe912;" glyph-name="pickup" data-tags="pickup" d="M831.298-57.591h-638.639c-58.704 0-106.44 47.738-106.44 106.44v638.639c0 58.707 47.735 106.44 106.44 106.44h93.749c32.909 92.957 121.339 159.662 225.57 159.662s192.659-66.706 225.57-159.662h93.749c58.704 0 106.44-47.733 106.44-106.44v-638.639c0-58.702-47.736-106.44-106.44-106.44zM192.659-4.371h638.639c29.34 0 53.22 23.883 53.22 53.22v79.832h-745.079v-79.832c0-29.338 23.882-53.22 53.22-53.22zM831.298 740.712h-81.392c0.969-8.747 1.562-17.605 1.562-26.61h-26.585c29.383-0.013 53.196-23.835 53.196-53.217 0-29.393-23.827-53.222-53.22-53.222s-53.22 23.83-53.22 53.222c0 29.383 23.816 53.204 53.199 53.217h-26.589c0 102.874-83.395 186.27-186.27 186.27s-186.27-83.395-186.27-186.27h-26.587c29.38-0.013 53.196-23.835 53.196-53.217 0-29.393-23.827-53.222-53.22-53.222s-53.22 23.83-53.22 53.222c0 29.383 23.816 53.204 53.196 53.217h-26.587c0 9.005 0.594 17.863 1.56 26.61h-81.39c-29.337 0-53.22-23.885-53.22-53.222v-505.587h745.079v505.586c0.004 29.338-23.876 53.223-53.216 53.223zM618.419 740.712h-212.88c-14.697 0-26.61 11.913-26.61 26.61s11.913 26.61 26.61 26.61h212.879c14.697 0 26.61-11.913 26.61-26.61s-11.912-26.61-26.609-26.61z" />
<glyph unicode="&#xe913;" glyph-name="setting" data-tags="setting" d="M1010.398 340.175c-1.794-9.477-8.966-17.005-18.315-19.163-53.009-12.258-97.049-44.94-124.029-91.965-26.953-47.006-33.067-77.509-17.229-129.738 2.808-9.213-0.070-19.214-7.292-25.508-48.644-42.278-104.111-74.531-164.91-95.812-9.087-3.134-19.093-0.687-25.631 6.387-37.033 39.953-87.116 61.945-141.024 61.945-53.92 0-104.003-21.991-141.034-61.945-4.662-5.032-11.094-7.739-17.68-7.739-2.666 0-5.346 0.449-7.942 1.351-60.825 21.307-116.312 53.56-164.92 95.836-7.236 6.318-10.091 16.317-7.306 25.508 15.862 52.229 9.747 82.708-17.206 129.713-26.977 47.025-71.017 79.682-123.995 91.965-9.346 2.158-16.534 9.687-18.327 19.163-6.112 32.35-9.204 64.567-9.204 95.74s3.091 63.39 9.204 95.74c1.793 9.477 8.982 17.005 18.327 19.166 52.963 12.268 96.994 44.927 123.983 91.974 26.965 46.981 33.079 101.632 17.208 153.869-2.799 9.216 0.073 19.214 7.303 25.508 48.608 42.3 104.106 74.544 164.931 95.834 9.051 3.171 19.093 0.679 25.622-6.373 37.031-39.951 87.114-61.954 141.034-61.954 53.908 0 103.99 22.003 141.024 61.954 6.538 7.065 16.592 9.544 25.606 6.373 60.871-21.29 116.36-53.533 164.956-95.821 7.225-6.293 10.102-16.292 7.294-25.505-15.862-52.231-9.747-106.881 17.206-153.885 26.979-47.047 71.019-79.706 124.029-91.974 9.348-2.16 16.521-9.69 18.315-19.18 6.114-32.405 9.206-64.622 9.206-95.725 0.002-31.098-3.089-63.317-9.204-95.737zM965.507 507.631c-58.554 17.824-108.734 57.548-139.323 110.842-30.542 53.251-39.651 116.783-25.773 176.627-37.244 30.337-78.691 54.411-123.536 71.759-44.915-42.574-102.857-65.826-164.908-65.826-61.081 0-120.312 23.811-164.898 65.837-44.83-17.353-86.277-41.435-123.534-71.786 13.866-59.863 4.744-123.386-25.81-176.612-30.573-53.295-80.743-93.018-139.263-110.842-3.838-24.299-5.771-48.356-5.771-71.715 0-23.357 1.933-47.407 5.771-71.701 58.543-17.839 108.711-57.553 139.286-110.848 31.013-54.080 39.983-92.068 25.81-152.465 37.256-30.327 78.691-54.411 123.509-71.772 44.599 42.013 103.816 65.835 164.898 65.835 62.050 0 119.993-23.253 164.908-65.814 44.799 17.339 86.243 41.422 123.512 71.749-13.854 59.854-4.723 99.22 25.798 152.465 30.564 53.295 80.743 93.008 139.323 110.848 3.823 24.34 5.759 48.39 5.759 71.701 0 23.314-1.935 47.374-5.759 71.717zM656.991 484.255c-31.917 61.287-91.473 96.673-145.012 96.673-80.088 0-145.012-64.922-145.012-145.010s64.925-145.015 145.012-145.015c71.809 0 131.016 52.323 142.576 120.843 0 0-1.931 25.010 23.584 24.172 26.955-0.887 25.519-24.172 25.519-24.172-11.917-95.351-93.1-169.178-191.68-169.178-106.784 0-193.35 86.562-193.35 193.35 0 106.782 86.565 193.347 193.35 193.347 81.123 0 150.467-50.012 179.162-120.843 0 0 4.471-16.193-9.981-24.166-14.151-7.807-24.169 0-24.169 0z" />
<glyph unicode="&#xe914;" glyph-name="logout" data-tags="logout" d="M996.836 428.059l-253.412-253.829c-11.008-11.016-28.841-11.016-39.849 0-11.008 11.019-11.008 28.866 0 39.879l205.308 205.687h-636.22c-15.559 0-28.178 12.63-28.178 28.203s12.618 28.203 28.178 28.203h704.25c11.391 0 21.683-6.874 26.032-17.407 4.377-10.545 1.957-22.667-6.109-30.736zM872.519 512.672l-168.943 169.216c-11.008 11.016-11.008 28.863 0 39.879 5.505 5.508 12.714 8.263 19.926 8.263s14.417-2.756 19.923-8.263l168.941-169.219c11.011-11.014 11.011-28.863 0-39.876-11.006-11.019-28.842-11.019-39.847 0zM554.719 786.438c0 31.094-25.309 56.41-56.407 56.41h-366.639c-31.097 0-56.41-25.316-56.41-56.41v-676.878c0-31.094 25.313-56.404 56.41-56.404h366.639c31.097 0 56.407 25.309 56.407 56.404v225.623h56.407v-225.623c0-62.216-50.594-112.813-112.813-112.813h-366.639c-62.222 0-112.815 50.596-112.815 112.813v676.878c0 62.219 50.594 112.815 112.815 112.815h366.639c62.219 0 112.813-50.596 112.813-112.815v-225.626h-56.407v225.626z" />
<glyph unicode="&#xe915;" glyph-name="label" data-tags="label" d="M982.352 918.351c-49.665 49.662-130.484 49.662-180.147 0l-64.068-64.067h-314.053c-6.741 0-13.184-2.677-17.943-7.435l-371.946-371.946c-19.257-19.232-29.842-44.811-29.842-72.020 0-27.235 10.585-52.815 29.842-72.044l360.643-360.648c19.853-19.851 45.95-29.788 72.023-29.788 26.096 0 52.195 9.938 72.046 29.788l371.921 371.949c4.758 4.758 7.433 11.202 7.433 17.943v314.027l64.090 64.088c49.668 49.693 49.668 130.512 0.001 180.154zM946.467 774.088l-28.205-28.205v74.794c0 14.030-11.349 25.381-25.376 25.381s-25.378-11.352-25.378-25.381v-128.141c-2.703-6.343-2.703-13.557 0-19.898v-302.049l-364.487-364.513c-19.952-19.949-52.39-19.901-72.295 0l-360.643 360.648c-9.666 9.666-14.973 22.506-14.973 36.159 0 13.63 5.307 26.47 14.973 36.136l364.511 364.511h252.786l-25.427-25.426c-49.665-49.642-49.665-130.461 0.794-180.917 0.422-0.374 0.99-0.845 1.535-1.291 4.736-4.060 10.633-6.118 16.532-6.118 6.121 0 12.267 2.205 17.151 6.665 10.334 9.469 11.027 25.53 1.561 35.865-0.667 0.744-1.584 1.586-2.5 2.378-29.051 29.939-28.776 77.944 0.815 107.534l140.253 140.247c29.886 29.888 78.487 29.837 108.374 0 29.865-29.862 29.865-78.489 0-108.376zM747.049 734.48l-25.376-43.955c36.412-21.026 48.891-67.589 27.865-104.002-21.023-36.415-67.587-48.891-104.002-27.868-36.412 21.023-48.891 67.587-27.866 104.002l-43.957 25.378c-35.040-60.691-14.244-138.298 46.445-173.335 60.691-35.042 138.298-14.247 173.338 46.445 35.039 60.689 14.244 138.296-46.447 173.335z" />
<glyph unicode="&#xe916;" glyph-name="idea" data-tags="idea" d="M691.114 321.521c-16.899-12.561-29.050-41.133-29.050-41.133-4.864-7.792-13.233-12.053-21.78-12.053-4.638 0-9.35 1.249-13.587 3.906-12.001 7.495-15.664 23.335-8.143 35.371 0 0 12.132 35.471 47.424 57.928 45.237 28.788 128.332 137.387 128.332 236.456 0 155.925-126.404 282.329-282.329 282.329s-282.332-126.403-282.332-282.328c0-99.069 51.127-186.071 128.332-236.456 0 0 37.055-32.922 51.333-71.539 16.56-44.795 16.935-76.999 16.935-76.999h214.062c14.176 0 25.667-11.494 25.667-25.667 0-14.176-11.491-25.667-25.667-25.667h-230.997c-4.079 0-7.795 1.152-11.219 2.844-0.978 0.477-1.736 1.183-2.653 1.789-2.492 1.651-4.602 3.611-6.383 6.009-0.426 0.57-1.116 0.796-1.501 1.412l-0.801 2.002c-0.645 1.244-1.109 2.508-1.545 3.863 0 0-3.342 97.586-52.37 137.933-92.645 59.264-154.524 162.337-154.524 280.477 0 184.277 149.385 333.662 333.662 333.662s333.662-149.385 333.662-333.662c0-118.141-61.881-221.214-154.526-280.478zM409.313 114.336h230.997c14.176 0 25.667-11.491 25.667-25.663 0-14.176-11.491-25.667-25.667-25.667h-230.997c-14.176 0-25.667 11.491-25.667 25.667 0 14.173 11.491 25.663 25.667 25.663zM434.98 11.672h179.664c14.176 0 25.667-11.491 25.667-25.667s-11.491-25.667-25.667-25.667h-179.664c-14.176 0-25.667 11.491-25.667 25.667s11.491 25.667 25.667 25.667z" />
<glyph unicode="&#xe917;" glyph-name="warn" data-tags="warn" d="M887.8 255.251c-29.938 106.793-78.164 258.086-97.079 310.218-69.335 191.228-157.822 280.566-278.322 281.127-0.429-0.024-0.789-0.25-1.223-0.25-0.427 0-0.781 0.223-1.2 0.245-130.057-0.614-221.158-91.908-286.57-287.272-34.481-102.954-79.727-282.090-97.665-354.667h720.336v-0.802h106.74c12.251-1.981 21.761-12.112 21.761-24.898 0-14.194-11.513-25.702-25.741-25.702h-852.879c-1.051-0.131-2.038-0.524-3.112-0.524-1.465 0-2.945 0.265-4.423 0.524h-13.303c-14.215 0-25.741 11.508-25.741 25.702 0 13.3 10.249 23.865 23.218 25.191 15.274 62.366 64.15 258.497 101.993 371.474 44.321 132.384 124.593 306.043 310.843 320.967v26.862c0 14.191 11.513 25.702 25.743 25.702 14.225 0 25.738-11.511 25.738-25.702v-26.566c130.929-11.722 229.997-114.706 302.219-313.917 20.457-56.407 71.851-217.789 102.093-327.713h-53.426zM365.203 71.861c12.269 7.181 28.052 3.001 35.194-9.288 23.477-40.279 64.877-64.324 110.78-64.324 45.897 0 87.297 24.045 110.777 64.324 7.162 12.249 22.922 16.44 35.19 9.288 12.29-7.126 16.463-22.863 9.301-35.134-32.303-55.445-91.803-89.875-155.268-89.875-63.474 0-122.972 34.43-155.271 89.875-7.166 12.271-2.992 28.006 9.298 35.134z" />
<glyph unicode="&#xe918;" glyph-name="close" data-tags="close" d="M966.19 854.399l-358.588-358.587c-13.202-13.202-34.609-13.202-47.811 0s-13.202 34.609 0 47.811l358.588 358.588c13.202 13.206 34.609 13.206 47.811 0 13.202-13.203 13.202-34.609 0-47.812zM966.19-6.21c-13.202-13.206-34.609-13.206-47.811 0l-406.4 406.398-406.399-406.398c-13.202-13.206-34.609-13.206-47.815 0-13.202 13.202-13.202 34.606 0 47.811l406.403 406.399-406.402 406.399c-13.202 13.202-13.202 34.609 0 47.811 13.206 13.206 34.612 13.206 47.815 0l860.61-860.61c13.201-13.206 13.201-34.608-0.001-47.81z" />
<glyph unicode="&#xe919;" glyph-name="search" data-tags="search" d="M937.188 142.096c15.73-15.913 24.401-37.062 24.401-59.555 0-22.494-8.67-43.645-24.401-59.546-15.75-15.901-36.668-24.662-58.926-24.662-22.273 0-43.193 8.76-58.941 24.662l-224.21 226.572c-4.279 4.322-7.832 8.903-10.685 13.668-52.626-33.737-114.941-53.366-181.743-53.366-187.641 0-340.313 154.27-340.313 343.897 0 189.632 152.672 343.9 340.313 343.9 187.653 0 340.31-154.27 340.31-343.9 0-62.964-16.906-121.973-46.255-172.784 5.297-2.878 10.775-6.8 16.223-12.31l224.229-226.575zM631.639 292.541c0.084 0 0.816-1.318 2.754-3.275l224.209-226.578c10.487-10.58 28.813-10.58 39.301 0 5.234 5.306 8.124 12.354 8.124 19.852s-2.89 14.556-8.139 19.861l-224.21 226.572c-1.969 1.99-3.284 2.729-3.621 2.841-0.205-0.096-5.917-0.849-21.775-16.875-15.855-16.025-16.614-21.799-16.655-22.398 0.013 0 0.013 0 0.013 0zM402.681 841.52c-157.013 0-284.751-129.087-284.751-287.753s127.738-287.75 284.751-287.75c157.010 0 284.748 129.084 284.748 287.75s-127.737 287.753-284.748 287.753z" />
<glyph unicode="&#xe91a;" glyph-name="minabout" data-tags="minabout" d="M480.473 479.509c0-58.006 47.020-105.028 105.026-105.028 58.004 0 105.026 47.022 105.026 105.028 0 58.002-47.022 105.024-105.026 105.024-58.006 0-105.026-47.022-105.026-105.024zM585.498 542.522c34.802 0 63.015-28.212 63.015-63.013 0-34.806-28.215-63.017-63.015-63.017-34.804 0-63.015 28.213-63.015 63.017 0 34.802 28.213 63.013 63.015 63.013zM459.468 479.509c0 15.103 3.094 29.39 7.967 42.813-2.638-0.336-5.238-0.804-7.967-0.804-34.804 0-63.017 28.215-63.017 63.015 0 34.804 28.215 63.015 63.017 63.015 33.657 0 60.906-26.458 62.678-59.673 12.368 7.247 25.87 12.671 40.463 15.355-8.845 49.051-51.541 86.331-103.139 86.331-58.006 0-105.028-47.022-105.028-105.028-0.001-58.004 47.021-105.024 105.027-105.024zM584.841 353.474c-116.654 0.916-160.895-95.093-168.915-115.466-4.266-10.803-2.445-22.891 7.6-28.716 10.027-5.869 24.783-3.323 28.762 7.591 8.688 23.731 53.038 93.854 132.553 94.582 90.045 0.828 123.865-76.101 132.551-94.582 4.949-10.49 18.737-13.439 28.764-7.591 10.045 5.825 9.889 17.332 7.6 28.716-5.396 26.938-47.041 114.514-168.915 115.466zM477.553 415.376c-7.768 13.042-13.315 27.447-15.953 42.977-0.958 0.018-1.821 0.141-2.79 0.149-116.654 0.912-160.895-95.097-168.917-115.468-4.264-10.803-2.443-22.891 7.602-28.716 10.025-5.869 24.787-3.323 28.762 7.589 8.688 23.734 53.038 93.856 132.553 94.584 6.572 0.061 12.758-0.401 18.743-1.115zM732.533 752.576h-441.106c-46.341 0-84.023-37.681-84.023-84.021v-441.108c0-46.339 37.681-84.023 84.023-84.023h441.106c46.339 0 84.021 37.683 84.021 84.023v441.108c0 46.339-37.681 84.021-84.021 84.021zM774.543 227.447c0-23.16-18.85-42.010-42.010-42.010h-441.106c-23.158 0-42.013 18.85-42.013 42.010v441.108c0 23.156 18.854 42.010 42.013 42.010h441.106c23.16 0 42.010-18.854 42.010-42.010v-441.108z" />
<glyph unicode="&#xe91b;" glyph-name="mincard" data-tags="mincard" d="M737.951 241.676h-451.946c-43.349 0-78.601 35.248-78.601 78.598v255.452c0 43.338 35.252 78.598 78.601 78.598h451.946c43.351 0 78.601-35.26 78.601-78.598v-255.451c0.001-43.35-35.25-78.599-78.601-78.599zM777.251 516.773v58.952c0 21.672-17.634 39.296-39.3 39.296h-451.946c-21.664 0-39.3-17.624-39.3-39.296v-19.652h491.245c10.852 0 19.65-8.795 19.65-19.647s-8.797-19.652-19.65-19.652h-491.244v-39.3h530.545v39.299zM777.251 438.176h-530.545v-117.901c0-21.662 17.636-39.3 39.3-39.3h451.946c21.666 0 39.3 17.638 39.3 39.3v117.901h-0.001zM384.256 379.224h-78.601c-10.852 0-19.647 8.799-19.647 19.65s8.795 19.652 19.647 19.652h78.601c10.851 0 19.647-8.799 19.647-19.652 0-10.85-8.797-19.65-19.647-19.65z" />
<glyph unicode="&#xe91c;" glyph-name="mincode" data-tags="mincode" d="M796.248 427.697h-568.539c-11.214 0-20.305 9.089-20.305 20.304 0 11.212 9.090 20.305 20.305 20.305h568.539c11.214 0 20.305-9.092 20.305-20.305 0-11.216-9.091-20.304-20.305-20.304zM572.893 651.051c0 11.212 9.090 20.305 20.304 20.305h101.525c11.214 0 20.304-9.092 20.304-20.305 11.214 0 20.305-9.092 20.305-20.305v-101.527c0-11.214-9.090-20.305-20.305-20.305 0-11.214-9.090-20.304-20.304-20.304h-101.525c-11.214 0-20.304 9.090-20.304 20.304-11.214 0-20.305 9.091-20.305 20.305v101.527c0.001 11.213 9.091 20.305 20.305 20.305zM593.198 529.219h101.525v101.527h-101.525v-101.527zM755.638 651.051c0 22.425-18.183 40.61-40.61 40.61h-162.44v40.608h162.44c44.856 0 81.22-36.364 81.22-81.218v-162.44h-40.61v162.44zM329.233 671.356h101.525c11.214 0 20.304-9.092 20.304-20.305 11.214 0 20.305-9.092 20.305-20.305v-101.527c0-11.214-9.090-20.305-20.305-20.305 0-11.214-9.090-20.304-20.304-20.304h-101.525c-11.214 0-20.304 9.090-20.304 20.304-11.214 0-20.305 9.091-20.305 20.305v101.527c0 11.212 9.090 20.305 20.305 20.305 0 11.212 9.090 20.305 20.304 20.305zM329.233 529.219h101.525v101.527h-101.525v-101.527zM268.319 651.051v-162.44h-40.61v162.44c0 44.854 36.362 81.218 81.22 81.218h162.44v-40.608h-162.44c-22.427 0-40.61-18.185-40.61-40.61zM430.759 224.646h-101.525c-11.214 0-20.304 9.091-20.304 20.305-11.214 0-20.305 9.089-20.305 20.305v101.523c0 11.214 9.090 20.305 20.305 20.305 0 11.214 9.090 20.306 20.304 20.306h101.525c11.214 0 20.304-9.092 20.304-20.306 11.214 0 20.305-9.091 20.305-20.305v-101.523c0-11.216-9.090-20.305-20.305-20.305 0-11.214-9.090-20.305-20.304-20.305zM430.759 366.779h-101.525v-101.523h101.525v101.523zM268.319 244.949c0-22.429 18.183-40.612 40.61-40.612h162.44v-40.606h-162.44c-44.858 0-81.22 36.362-81.22 81.218v162.438h40.61v-162.438zM755.638 244.949v162.438h40.61v-162.438c0-44.856-36.364-81.218-81.22-81.218h-162.44v40.606h162.44c22.427 0 40.61 18.183 40.61 40.612z" />
<glyph unicode="&#xe91d;" glyph-name="minfav" data-tags="minfav" d="M755.106 396.499l-174.334-165.802c-7.421-6.162-19.937-18.106-28.185-16.201-8.25 1.902-21.535 9.158-20.304 20.304 0.633 5.754 3.563 12.227 10.039 19.291l172.705 163.453c26.705 28.959 60.914 61.572 60.914 101.524 0 74.466-51.749 142.134-121.83 142.134-59.21 0-106.974-65.688-142.134-112.613-36.112 48.631-82.928 113.133-142.134 112.613-71.982-0.635-121.83-67.668-121.83-142.134 0-39.948 37.739-76.783 60.914-101.524l182.744-172.466c2.067-2.11 3.825-3.899 5.496-5.566 3.917-4.959 12.904-12.664 14.808-25.018 1.708-11.082-9.090-20.304-20.304-20.304 10 0-10.004 0.309-10.991 1.293l-211.835 201.019c-16.425 15.563-61.442 71.433-61.442 122.566 0 95.317 67.12 182.74 162.44 182.74 67.668 0 101.782-38.114 141.501-91.733 40.888 51.849 75.099 91.733 142.77 91.733 95.319 0 162.44-87.423 162.44-182.74 0-51.138-42.487-104.471-61.447-122.571z" />
<glyph unicode="&#xe91e;" glyph-name="minhelp" data-tags="minhelp" d="M511.979 143.425c-168.211 0-304.575 136.361-304.575 304.575 0 168.211 136.364 304.575 304.575 304.575s304.575-136.364 304.575-304.575c0-168.213-136.364-304.575-304.575-304.575zM511.979 710.564c-145.011 0-262.564-117.553-262.564-262.564 0-145.009 117.553-262.564 262.564-262.564 145.009 0 262.564 117.555 262.564 262.564 0 145.012-117.555 262.564-262.564 262.564zM522.481 383.153v-8.67c0-11.601-9.404-21.005-21.005-21.005s-21.005 9.404-21.005 21.005v21.005c0 11.599 1.968 14.441 21.005 21.005 19.035 6.565 60.963 17.968 63.179 63.035 3.885 78.988-102.151 95.049-105.36 0.817 0.012-0.294 0.17-0.54 0.17-0.836 0-11.601-9.404-21.005-21.005-21.005s-21.005 9.404-21.005 21.005h-0.162c0 0.006-0.002 0.012-0.002 0.018 3.939 146.133 198.505 131.374 189.374 0-3.937-56.666-60.72-86.161-84.183-96.374zM501.475 332.472c11.601 0 21.005-9.404 21.005-21.005s-9.404-21.005-21.005-21.005-21.005 9.404-21.005 21.005 9.405 21.005 21.005 21.005z" />
<glyph unicode="&#xe91f;" glyph-name="minindex" data-tags="minindex" d="M810.117 462.536l-279.616 279.617c-5.052 5.052-11.95 7.105-18.523 6.206-6.573 0.898-13.471-1.154-18.523-6.206l-279.616-279.617c-8.578-8.578-8.578-22.489 0-31.069 8.581-8.581 22.489-8.581 31.069 0l14.432 14.431v-188.62h-0.002v-21.968c0-48.466 39.412-87.875 87.877-87.875h87.875c12.143 0 21.968 9.825 21.968 21.968v153.786h109.842v-131.813c0-4.090 1.421-7.707 3.366-10.984-1.944-3.28-3.364-6.894-3.364-10.986 0-12.145 9.827-21.968 21.966-21.968h87.877c48.463 0 87.875 39.41 87.875 87.875l-0.002 175.751c0 12.131-9.829 21.96-21.958 21.968h-0.021c-12.127-0.009-21.958-9.838-21.958-21.968v-175.751c0-24.221-19.717-43.936-43.936-43.936h-65.909v131.812c0 4.088-1.417 7.7-3.364 10.978 1.946 3.28 3.366 6.898 3.366 10.989 0 12.143-9.827 21.966-21.971 21.966h-153.778c-12.143 0-21.971-9.825-21.971-21.966v-153.779h-65.904c-24.221 0-43.938 19.715-43.938 43.936v254.525l208.703 208.702 267.071-267.071c8.581-8.581 22.489-8.581 31.069 0 8.58 8.578 8.58 22.489-0.001 31.068z" />
<glyph unicode="&#xe920;" glyph-name="minorder" data-tags="minorder" d="M690.52 143.425h-357.085c-46.341 0-84.023 37.681-84.023 84.021v441.108c0 46.341 37.681 84.021 84.023 84.021h357.086c46.339 0 84.023-37.679 84.023-84.021v-441.108c-0.001-46.339-37.684-84.021-84.024-84.021zM732.533 668.554c0 23.156-18.852 42.010-42.013 42.010h-357.085c-23.158 0-42.013-18.854-42.013-42.010v-441.108c0-23.16 18.854-42.011 42.013-42.011h357.086c23.16 0 42.013 18.85 42.013 42.011v441.108h-0.001zM669.517 626.543c-11.601 0-21.007 9.404-21.007 21.005s9.406 21.005 21.007 21.005 21.005-9.404 21.005-21.005c0-11.601-9.404-21.005-21.005-21.005zM669.517 542.524c0-11.601-9.406-21.005-21.007-21.005h-273.064c-11.601 0-21.007 9.404-21.007 21.005s9.406 21.005 21.007 21.005h273.065c11.601-0.001 21.006-9.405 21.006-21.005zM354.437 626.543c-11.601 0-21.005 9.404-21.005 21.005s9.404 21.005 21.005 21.005 21.007-9.404 21.007-21.005c0-11.601-9.406-21.005-21.007-21.005zM375.445 458.5h273.065c11.601 0 21.007-9.402 21.007-21.003 0-11.599-9.406-21.005-21.007-21.005h-273.065c-11.601 0-21.007 9.406-21.007 21.005 0 11.602 9.406 21.003 21.007 21.003z" />
<glyph unicode="&#xe921;" glyph-name="minscore" data-tags="minscore" d="M812.038 236.862l-93.805-11.264-51.778-72.79c0 0-52.335 17.103-78.421 51.78l-56.755 98.3c-6.373-0.555-12.784-0.975-19.301-0.975s-12.929 0.421-19.303 0.975l-56.753-98.3c-26.086-34.678-78.423-51.78-78.423-51.78l-51.778 72.79-93.804 11.264c0 0-13.239 51.93 5.631 93.808l80.38 139.225c-4.145 16.903-6.588 34.476-6.588 52.659 0 121.855 98.783 220.638 220.638 220.638s220.638-98.783 220.638-220.638c0-18.183-2.442-35.756-6.59-52.659l80.382-139.225c18.871-41.879 5.63-93.808 5.63-93.808zM253.943 309.656c-13.566-26.086 0.393-26.792 7.693-28.708 23.671-6.211 65.099-18.952 65.099-18.952s28.42-21.437 44.088-44.088c7.325-10.588 13.929-14.432 28.704 7.695l49.406 85.572c-57.016 16.985-104.338 56.328-131.795 107.936l-63.195-109.456zM511.979 701.165c-98.645 0-178.612-79.967-178.612-178.612s79.967-178.612 178.612-178.612 178.612 79.967 178.612 178.612-79.967 178.612-178.612 178.612zM770.012 309.656l-63.193 109.456c-27.456-51.608-74.779-90.951-131.795-107.936l49.404-85.572c14.774-22.127 21.379-18.283 28.706-7.695 15.668 22.65 44.086 44.088 44.086 44.088s41.43 12.74 65.101 18.952c7.3 1.916 21.259 2.622 7.691 28.708zM605.070 454.611c13.976 19.107 22.482 42.455 22.482 67.942 0 63.83-51.745 115.572-115.572 115.572-63.83 0-115.572-51.742-115.572-115.572s51.742-115.572 115.572-115.572c19.839 0 38.223 5.459 54.535 14.266 14.442-5.256 27.594-13.151 36.048-27.529-25.64-18.063-56.836-28.763-90.584-28.763-87.038 0-157.598 70.56-157.598 157.599s70.56 157.598 157.598 157.598 157.599-70.56 157.599-157.598c0-36.876-12.764-70.718-33.983-97.564-23.94-3.988-31.56 6.046-30.525 29.621z" />
<glyph unicode="&#xe922;" glyph-name="mintag" data-tags="mintag" d="M571.948 507.059c-31.864 31.763-31.864 83.263 0 115.029 31.86 31.765 83.521 31.765 115.383 0s31.862-83.265 0-115.029c-31.862-31.766-83.522-31.766-115.383 0zM658.485 535.814c15.93 15.883 15.93 41.631 0 57.517-15.932 15.879-41.76 15.879-57.692 0-15.932-15.887-15.932-41.634 0-57.517s41.76-15.883 57.692 0zM777.241 673.798c0 0 2.658 19.66 19.66 19.66 10.858 0 19.66-8.804 19.66-19.66h0.26v-221.691c0-20.744-11.815-29.039-28.528-45.7l-239.955-239.158c-31.862-31.763-83.521-31.763-115.385 0l-201.92 201.302c-31.862 31.765-31.862 83.269 0 115.029l239.954 239.156c19.831 20.744 23.634 29.839 44.44 29.839h283.379c3.605-0.613 17.013-0.145 17.754-19.799 0.672-17.842-19.398-19.66-19.398-19.66h-28.89c-2.856 0.265-234.008 1.897-234.008 1.897-10.404 0-25.173-11.802-34.433-21.034l-239.953-239.155c-15.932-15.883-15.932-41.631 0-57.514l201.921-201.304c15.93-15.879 41.76-15.879 57.691 0l239.954 239.158c10.16 10.129 19.701 25.348 19.701 35.722l-1.904 202.912z" />
<glyph unicode="&#xe923;" glyph-name="minticket" data-tags="minticket" d="M816.553 380.213v-39.3c0 0 0 0-0.002 0v-40.289c0-43.349-35.25-78.599-78.6-78.599h-451.946c-43.351 0-78.601 35.25-78.601 78.599v78.598h0.002v0.991c33.287 4.804 58.95 33.167 58.95 67.785s-25.662 62.98-58.95 67.785v0.991h-0.002v78.603c0 43.349 35.25 78.598 78.601 78.598h451.946c43.349 0 78.6-35.248 78.6-78.598v-40.294c0.002 0 0.002 0 0.002 0v-39.3c-33.287-4.804-58.95-33.167-58.95-67.785s25.662-62.98 58.95-67.785zM718.304 447.997c0 41.929 24.007 77.922 58.95 95.689l-0.002 51.689c0 21.66-17.634 39.298-39.3 39.298h-451.946c-21.666 0-39.302-17.638-39.302-39.298v-51.687c34.944-17.77 58.952-53.762 58.952-95.691s-24.008-77.922-58.952-95.689v-51.683c0-21.664 17.636-39.298 39.302-39.298h451.946c21.666 0 39.3 17.634 39.3 39.298l0.002 51.683c-34.944 17.768-58.95 53.76-58.95 95.689zM580.752 418.525c10.853 0 19.65-8.797 19.65-19.65 0-10.851-8.797-19.65-19.65-19.65h-58.95v-58.95c0-10.851-8.797-19.65-19.65-19.65s-19.65 8.799-19.65 19.65v58.95h-58.95c-10.852 0-19.65 8.799-19.65 19.65s8.797 19.65 19.65 19.65h58.95v19.652h-58.95c-10.852 0-19.65 8.797-19.65 19.647 0 10.852 8.797 19.65 19.65 19.65h58.95v19.651c0 0.499 0.248 0.916 0.282 1.403l-52.982 52.986c-7.675 7.672-7.675 20.114 0 27.787 7.674 7.675 20.114 7.675 27.789 0l44.56-44.562 44.562 44.562c7.674 7.675 20.115 7.675 27.789 0 7.674-7.674 7.674-20.115 0-27.787l-52.984-52.986c0.053-0.481 0.282-0.904 0.282-1.403v-19.65h58.95c10.853 0 19.65-8.797 19.65-19.65 0-10.851-8.797-19.647-19.65-19.647h-58.95v-19.652l58.95-0.001z" />
<glyph unicode="&#xe924;" glyph-name="mintime" data-tags="mintime" d="M511.979 143.424c-168.211 0-304.575 136.364-304.575 304.577 0 168.211 136.364 304.575 304.575 304.575s304.575-136.364 304.575-304.575c0-168.213-136.364-304.577-304.575-304.577zM511.979 710.565c-145.011 0-262.564-117.555-262.564-262.564 0-145.011 117.553-262.564 262.564-262.564 145.009 0 262.564 117.553 262.564 262.564s-117.555 262.564-262.564 262.564zM690.522 416.491c-11.601 0-21.005 9.406-21.005 21.005 0 11.601 9.404 21.007 21.005 21.007s21.005-9.406 21.005-21.007c0-11.599-9.404-21.005-21.005-21.005zM522.481 415.989h-168.041c-11.599 0-21.005 9.406-21.005 21.005 0 11.601 9.406 21.007 21.005 21.007h147.036v168.539c0 11.605 9.404 21.007 21.005 21.007s21.005-9.402 21.005-21.007v-189.546c0-11.599-9.404-21.005-21.005-21.005zM522.481 290.461c11.601 0 21.005-9.404 21.005-21.005 0-11.599-9.404-21.005-21.005-21.005s-21.005 9.406-21.005 21.005c0 11.601 9.404 21.005 21.005 21.005z" />
<glyph unicode="&#xe925;" glyph-name="minvip" data-tags="minvip" d="M810.696 460.877c-7.811 7.809-20.474 7.809-28.283 0l-265.036-208.879-265.038 208.879c-1.556 1.556-3.31 2.789-5.176 3.725 0.141 0.959 0.238 1.931 0.238 2.929l71.994 179.984h396.536l51.423-119.989c0-11.045 25.070-35.269 39.997-19.998 7.435 7.605 0 8.953 0 19.998l-59.994 139.987c0 11.045-8.953 19.998-19.998 19.998h-419.963c-11.045 0-19.998-8.953-19.998-19.998l-79.993-199.983c0-7.818 4.496-14.57 11.034-17.859-0.893-6.048 0.964-12.424 5.618-17.078l278.381-218.387c4.112-4.112 9.554-5.92 14.938-5.702 5.386-0.218 10.827 1.59 14.936 5.702l278.383 218.387c7.81 7.81 7.81 20.472 0.001 28.283zM587.37 567.52c-11.045 0-19.998-8.953-19.998-19.998v-179.984c0-11.045 8.953-19.998 19.998-19.998s19.998 8.953 19.998 19.998v41.006c3.294-0.476 26.571-1.008 29.997-1.008 38.656 0 69.994 31.337 69.994 69.994s-31.337 69.994-69.994 69.994c-3.426 0-26.703-0.534-29.997-1.010v1.008c0 11.046-8.953 19.998-19.998 19.998zM637.365 507.528c16.566 0 29.997-13.431 29.997-29.997 0-16.568-13.431-29.997-29.997-29.997-3.548 0-26.839 0.888-29.997 2.018v55.957c3.158 1.131 26.449 2.019 29.997 2.019zM507.377 547.522c-11.045 0-19.998-8.953-19.998-19.998v-99.991c0-11.044 8.953-19.998 19.998-19.998s19.998 8.955 19.998 19.998v99.991c0 11.046-8.953 19.998-19.998 19.998zM507.377 607.517c-11.045 0-19.998-8.953-19.998-19.998 0-11.044 8.953-19.998 19.998-19.998s19.998 8.955 19.998 19.998c0 11.045-8.953 19.998-19.998 19.998zM430.064 541.446l-42.677-76.706-42.676 76.706c-5.522 9.565-17.752 12.842-27.317 7.322-9.565-5.524-12.842-17.754-7.322-27.319l59.994-107.836c0.038-0.067 0.084-0.125 0.123-0.189 0.212-0.358 0.444-0.704 0.679-1.050 0.141-0.208 0.275-0.42 0.423-0.62 0.227-0.309 0.475-0.604 0.72-0.899 0.183-0.221 0.36-0.447 0.551-0.658 0.213-0.235 0.444-0.457 0.67-0.684 0.249-0.25 0.492-0.502 0.752-0.737 0.189-0.171 0.392-0.328 0.589-0.492 0.319-0.266 0.638-0.532 0.97-0.777 0.179-0.131 0.368-0.251 0.553-0.377 0.368-0.252 0.738-0.498 1.121-0.725 0.059-0.035 0.112-0.077 0.172-0.111 0.155-0.089 0.315-0.157 0.471-0.242 0.358-0.193 0.717-0.384 1.085-0.556 0.278-0.13 0.56-0.245 0.841-0.36 0.306-0.126 0.612-0.25 0.923-0.36 0.337-0.12 0.676-0.224 1.016-0.325 0.269-0.080 0.537-0.158 0.809-0.226 0.367-0.092 0.735-0.17 1.103-0.239 0.264-0.050 0.528-0.098 0.795-0.138 0.362-0.054 0.725-0.096 1.088-0.13 0.291-0.028 0.581-0.050 0.873-0.065 0.332-0.016 0.662-0.023 0.993-0.023s0.661 0.006 0.994 0.023c0.292 0.014 0.582 0.038 0.873 0.065 0.363 0.034 0.726 0.076 1.089 0.13 0.266 0.040 0.53 0.088 0.794 0.138 0.369 0.071 0.738 0.148 1.105 0.24 0.271 0.068 0.538 0.145 0.806 0.225 0.342 0.101 0.682 0.206 1.020 0.326 0.309 0.109 0.613 0.233 0.917 0.358 0.284 0.117 0.568 0.232 0.848 0.363 0.364 0.17 0.719 0.358 1.073 0.55 0.159 0.086 0.322 0.155 0.48 0.246 0.061 0.035 0.115 0.078 0.175 0.114 0.376 0.222 0.739 0.465 1.101 0.712 0.191 0.13 0.388 0.255 0.573 0.39 0.323 0.237 0.632 0.496 0.942 0.754 0.207 0.172 0.421 0.338 0.619 0.518 0.247 0.223 0.479 0.464 0.715 0.701 0.239 0.239 0.483 0.474 0.709 0.723 0.176 0.195 0.339 0.405 0.509 0.608 0.262 0.314 0.523 0.626 0.763 0.954 0.132 0.18 0.254 0.372 0.381 0.559 0.251 0.367 0.497 0.736 0.722 1.117 0.035 0.058 0.076 0.112 0.111 0.171l59.994 107.836c5.522 9.565 2.246 21.796-7.32 27.319-9.565 5.519-21.795 2.241-27.317-7.325z" />
<glyph unicode="&#xe926;" glyph-name="mingood" data-tags="mingood" d="M804.697 284.25c-98.83-14.995-157.157-108.182-167.658-115.403-8.112-5.578-12.413-5.771-18.579-2.165-7.659 4.482-10.281 14.389-5.857 22.154 79.181 138.984 209.597 129.81 183.771 126.731 8.783 1.056 17.3-2.792 19.611-11.439 2.296-8.641-2.541-18.539-11.287-19.878zM750.654 532.592c4.062-181.729-128.534-218.532-134.003-223.062-2.953-2.453-6.547-3.674-10.142-3.674s-7.187 1.221-10.14 3.674c-0.042 0.034-0.227 0.193-0.281 0.237-0.094-0.063-0.376-0.183-0.439-0.237-2.953-2.453-6.547-3.674-10.142-3.674s-7.188 1.221-10.142 3.674c-5.47 4.53-134.003 112.471-134.003 223.062 0 32.782 13.833 60.518 35.3 82.989-20.163 15.438-44.398 25.943-67.18 30.654-16.859 3.488-69.543 14.114-97.030 22.494-0.038-12.363 0-75.56 0-168.024 0-172.364 147.056-172.45 189.937-178.047 9.974 0.943 19.715 2.573 28.982 5.656 1.363-1.441 2.818-2.722 4.207-4.123 5.698 1.073 11.339 2.307 16.797 4.123 8.424-8.91 17.31-17.063 26.779-23.998-15.54-7.298-29.623-12.012-48.866-14.009 0.021-0.345-7.805 0.716-7.805 0.367v-84.012c0-10.441-1.97-21.003-21.003-21.003-23.628 0-24.005 13.622-24.005 22.58v81.083c0 0.485 0.231 0.89 0.271 1.363-84.247 9.924-218.708 60.423-212.41 241.907 1.858 53.546 0.126 194.587 0.126 194.587s50.256-18.052 117.434-40.309c1.203 3.293 3.062 6.31 6.32 8.216 43.959 25.718 93.091 37.789 142.629 36.14 27.226 1.271 54.771-1.548 81.863-8.863 8.544-2.297 13.606-11.184 11.339-19.844-3.909-14.859-57.649-6.905-40.584-11.493-16.677 4.498-33.54 6.879-50.365 7.641-33.109-1.525-65.685-9.968-95.879-25.418 24.771-6.773 48.775-18.082 69.866-32.283 27.841 18.424 60.888 31.368 93.424 37.561 43.123 8.21 116 48.651 116 48.651l36.005 4.56c-0.001-0.001-4.057-145.583-2.86-199.147zM606.509 646.235c-51.995-10.752-112.141-50.978-112.141-113.643 0-72.813 70.455-149.121 104.378-181.663 32.002 18.802 70.539 27.762 91.758 86.767 24.75 68.825 19.964 220.488 21.003 231.033-27.145-8.29-87.7-18.917-104.998-22.493zM411.356 188.835c4.421-7.765 1.8-17.671-5.859-22.154-6.164-3.606-10.465-3.413-18.579 2.165-10.501 7.22-68.829 100.409-167.656 115.403-8.748 1.337-13.584 11.237-11.287 19.878 2.309 8.647 10.827 12.495 19.611 11.439-25.826 3.078 104.588 12.252 183.771-126.731z" />
<glyph unicode="&#xe927;" glyph-name="minbad" data-tags="minbad" d="M804.697 284.327c-98.83-14.995-157.157-108.182-167.658-115.403-8.112-5.578-12.413-5.771-18.579-2.165-7.659 4.482-10.281 14.389-5.857 22.154 79.181 138.983 209.597 129.809 183.771 126.73 8.783 1.056 17.3-2.792 19.611-11.439 2.296-8.641-2.541-18.539-11.287-19.877zM669.501 437.771c-22.381-4.181-38.062-6.32-59.747 0.586-11.571-12.902-21.116-21.906-40.872-33.233-67.096-30.545-105.532-65.496-105.532-65.496s-23.183 91.13-33.658 125.28c-33.39 108.856 31.16 183.198 84.125 209.461-20.327 9.583-41.758 15.156-63.969 15.286-0.409 0-0.819 0-1.231 0-42.231 0-125.052-11.541-150.528-128.236-35.063-160.017 245.393-291.671 245.393-291.671s0.128-59.589 0-63.009c-0.439-11.732-5.396-17.621-21.003-21.003-11.359-2.459-21.255 8.395-21.003 21.003 0.489 26.37 0 42.006 0 42.006s-290.807 127.036-243.956 323.606c24.099 101.137 86.495 159.625 192.574 159.307 43.768-0.254 84.987-15.679 121.133-43.312 0 0 51.825 6.605 40.694 3.62 2.388 0.641 4.989 0.495 7.374-0.559 4.417-1.943 104.342-22.313 132.999-140.061 8.447-34.705 36.262-127.732 36.262-127.732s-66.423 23.988-119.055 14.155zM710.489 546.982c-20.972 86.36-95.719 100.905-99.018 102.312-1.784 0.764-3.73 0.862-5.522 0.38 6.312 1.693-39.273-2.838-39.273-2.838l-3.678-0.987c-0.475-0.164-0.848-0.279-0.864-0.229l-22.303-5.977c0.002-0.002 0.002-0.002 0.004-0.006-40.746-15.939-97.403-72.626-71.301-157.485 7.701-25.039 19.249-71.586 19.249-71.586s28.928 25.831 79.303 48.545c14.843 8.401 22.028 15.053 30.746 24.578 14.899-3.67 33.983-8.88 51.329-5.257 38.206 7.981 82.512-4.822 82.512-4.822s-15.007 47.917-21.186 73.373zM411.356 188.912c4.421-7.765 1.8-17.671-5.859-22.154-6.164-3.606-10.465-3.413-18.579 2.165-10.501 7.22-68.829 100.409-167.656 115.403-8.748 1.337-13.584 11.237-11.287 19.877 2.309 8.647 10.827 12.495 19.611 11.439-25.826 3.079 104.588 12.253 183.771-126.73z" />
<glyph unicode="&#xe928;" glyph-name="minelectric" data-tags="minelectric" d="M293.56 436.081c0 0 141.817 4.019 181.043 3.882l-81.337-251.95c0 0-12.676-38.187 11.728-43.765 24.406-5.578 45.26 19.024 44.974 18.745l271.96 379.034c13.479 25.122 16.675 53.909-35.239 53.922h-73.749l108.987 102.531c13.479 25.124 13.883 54.62-36.633 53.922h-221.778c0 0-48.634 6.054-58.281-53.552l-111.675-262.77zM459.965 703.938c0.299 1.27 0.401 2.526 0.641 3.795 99.568 0 190.221 0 207.143 0l-165.117-156.455c0 0 125.227 0 165.117 0l-206.724-295.609 68.309 189.384c6.517 27.755-0.639 45.228-47.995 42.961l-114.341-8.325 92.968 224.247z" />
<glyph unicode="&#xe929;" glyph-name="minfire" data-tags="minfire" d="M511.977 143.425c-161.981 0-270.732 86.192-270.732 248.171 0 66.993 63.453 190.358 90.244 180.486s0.442-141.615 67.682-180.486c-14.719 74.716-92.595 243.945 135.366 360.978 42.627-12.79 12.56-159.779 45.122-225.61-3.025 0.641 22.956-32.432 0-45.122-15.693-8.675-33.992 7.79-40.565 19.43-19.411 42.406-27.119 102.752-27.119 183.615-148.138-91.988-89.73-245.15-51.116-347.484-129.462 0-135.095 110.138-149.090 149.402-9.871-9.871-26.123-68.165-25.404-95.207 3.806-143.244 88.55-203.049 225.61-203.049 137.063 0 214.088 61.785 225.61 203.052-0.659 85.278-49.097 139.565-45.122 180.49-30.153-11.993-39.482-27.497-45.122-45.125-5.64-17.624-8.641-58.408-42.015-38.715-0.659 4.668-1.564 9.841-3.107 16.154-10.3 63.148 52.797 104.094 110.659 136.431 8.461-32.43 16.195-74.143 28.958-100.178 30.816-52.759 40.872-98.344 40.872-149.061-0.002-161.98-108.753-248.172-270.734-248.172z" />
<glyph unicode="&#xe92a;" glyph-name="minfood" data-tags="minfood" d="M761.736 377.715c-45.899-43.974-105.329-23.429-117.144-23.429v-187.432c0-12.938-10.489-23.429-23.429-23.429s-23.429 10.491-23.429 23.429v562.291c0 12.938 10.489 23.427 23.429 23.427s12.309 0.002 23.429 0.002c0 0 187.868-307.099 117.144-374.86zM644.592 682.286v-281.142c6.733 0 41-7.809 70.286 23.429 29.286 31.241-70.286 257.714-70.286 257.714zM463.497 496.138c-11.19-36.931-39.915-66.083-76.621-77.687v-251.592c0-12.942-10.489-23.431-23.429-23.431s-23.429 10.489-23.429 23.431v251.592c-36.706 11.604-65.432 40.756-76.624 77.687-9.786 2.811-17.091 11.459-17.091 22.149v187.43c0 12.94 10.489 23.429 23.429 23.429s23.429-10.489 23.429-23.429v-187.43c0-3.434-0.825-6.642-2.153-9.582 11.53-16.763 31.472-30.38 49.010-38.99v259.431c0 12.94 10.489 23.429 23.429 23.429s23.429-10.489 23.429-23.429v-259.431c17.538 8.608 37.479 22.227 49.010 38.99-1.328 2.94-2.153 6.148-2.153 9.582v187.43c0 12.94 10.489 23.429 23.429 23.429s23.429-10.489 23.429-23.429v-187.43c0.001-10.69-7.304-19.338-17.092-22.149z" />
<glyph unicode="&#xe92b;" glyph-name="miniphone" data-tags="miniphone" d="M613.502 143.425h-203.051c-49.84 0-90.244 40.4-90.244 90.246v428.659c0 49.844 40.405 90.244 90.244 90.244h203.051c49.84 0 90.247-40.4 90.247-90.244v-428.658c-0.001-49.846-40.408-90.247-90.247-90.247zM658.626 662.333h-0.002c0 24.916-20.203 45.12-45.123 45.12h-203.051c-24.919 0-45.118-20.201-45.12-45.12v0-428.659c0-24.926 20.199-45.125 45.12-45.125h203.051c24.919 0 45.123 20.199 45.123 45.125v45.119h0.002v383.54zM511.976 278.79c18.692 0 33.842-15.15 33.842-33.84 0-18.692-15.15-33.846-33.842-33.846-18.69 0-33.842 15.154-33.842 33.846 0 18.69 15.152 33.84 33.842 33.84z" />
<glyph unicode="&#xe92c;" glyph-name="minmovie" data-tags="minmovie" d="M775.946 215.694c-16.498-12.871-40.614-11.268-40.614-11.268h-446.709c0 0-24.748-2.873-40.612 11.268-24.174 14.071-40.608 39.968-40.608 69.955v324.879c0 29.987 16.435 55.884 40.608 69.953 17.133 9.686 40.612 11.27 40.612 11.27h446.709c0 0 25.385 1.59 40.614-11.27 24.172-14.069 40.606-39.966 40.606-69.953v-324.878c0.001-29.987-16.434-55.885-40.606-69.956zM532.286 346.565c0-11.214 9.092-20.305 20.301-20.305h203.051c11.214 0 20.308 9.091 20.308 20.305v203.049c0 11.216-9.092 20.305-20.308 20.305h-203.051c-11.208 0-20.301-9.089-20.301-20.305v-203.049zM735.33 245.037v40.612h-40.604v-40.612h40.604zM654.111 245.037v40.612h-40.606v-40.612h40.606zM572.893 245.037v40.612h-40.607v-40.612h40.607zM491.672 245.037v40.612h-40.608v-40.612h40.608zM268.321 569.918c-11.214 0-20.308-9.089-20.308-20.305v-203.049c0-11.214 9.092-20.305 20.308-20.305h203.049c11.21 0 20.303 9.091 20.303 20.305v203.050c0 11.216-9.092 20.305-20.303 20.305l-203.049-0.001zM410.452 245.037v40.612h-40.606v-40.612h40.606zM329.232 245.037v40.612h-40.606v-40.612h40.606zM288.626 651.139v-40.61h40.606v40.61h-40.606zM369.846 651.139v-40.61h40.606v40.61h-40.606zM451.064 651.139v-40.61h40.608v40.61h-40.608zM532.286 651.139v-40.61h40.606v40.61h-40.606zM613.505 651.139v-40.61h40.606v40.61h-40.606zM694.727 651.139v-40.61h40.604v40.61h-40.604z" />
<glyph unicode="&#xe92d;" glyph-name="minshark" data-tags="minshark" d="M794.478 619.544c-10.089-12.317-25.572-14.653-36.874-4.518-2.928 2.624-7.518 12.397-2.084 23.969 12.839 6.465 21.735 19.623 21.735 34.981 0 21.703-17.595 39.3-39.3 39.3-6.347 0-17.335 2.425-19.65 19.649-0.634 4.714 0.122 19.651 19.65 19.651 43.409 0 78.6-35.189 78.6-78.598 0-21.171-8.466-40.302-22.077-54.433zM721.626 585.084l-96.629-360.627c-11.236-41.933-54.337-66.814-96.268-55.58l-170.824 45.772c-41.929 11.236-66.814 54.334-55.578 96.268l96.629 360.625c11.236 41.931 54.337 66.814 96.265 55.58l170.824-45.772c41.931-11.234 66.816-54.334 55.58-96.265zM655.876 643.389l-170.824 45.77c-20.964 5.618-42.513-6.824-48.131-27.787h-0.002l-96.628-360.629c-5.618-20.969 6.822-42.515 27.787-48.133l170.826-45.772c20.964-5.616 42.515 6.822 48.132 27.791l96.629 360.628c5.616 20.962-6.824 42.514-27.789 48.132zM458.575 248.703c-15.724 4.213-25.056 20.377-20.841 36.103 4.213 15.722 20.373 25.054 36.097 20.839 15.726-4.213 25.056-20.373 20.845-36.097-4.215-15.726-20.377-25.058-36.101-20.845zM286.003 143.425c-43.411 0-78.6 35.192-78.6 78.6 0 21.169 8.465 40.3 22.075 54.431 10.089 12.317 25.572 14.655 36.875 4.52 2.926-2.627 7.518-12.399 2.084-23.971-12.841-6.465-21.735-19.623-21.735-34.979 0-21.705 17.595-39.3 39.3-39.3 6.347 0 17.334-2.426 19.65-19.652 0.634-4.713-0.122-19.65-19.649-19.65z" />
<glyph unicode="&#xe92e;" glyph-name="mintopup" data-tags="mintopup" d="M511.98 143.424c-168.212 0-304.576 136.364-304.576 304.576s136.364 304.576 304.576 304.576 304.574-136.364 304.574-304.576-136.362-304.576-304.574-304.576zM511.98 710.565c-145.012 0-262.567-117.555-262.567-262.565 0-145.012 117.555-262.565 262.567-262.565 145.010 0 262.565 117.553 262.565 262.565 0 145.010-117.555 262.565-262.565 262.565zM585.496 416.494c11.601 0 21.005-9.404 21.005-21.005 0-11.599-9.404-21.005-21.005-21.005h-63.015v-63.015c0-11.599-9.404-21.005-21.005-21.005s-21.005 9.406-21.005 21.005v63.015h-63.015c-11.601 0-21.005 9.406-21.005 21.005 0 11.601 9.404 21.005 21.005 21.005h63.015v21.007h-63.015c-11.601 0-21.005 9.404-21.005 21.003 0 11.601 9.404 21.005 21.005 21.005h63.015v21.005c0 0.533 0.263 0.979 0.303 1.5l-56.636 56.639c-8.205 8.203-8.205 21.503 0 29.706 8.203 8.205 21.501 8.205 29.706 0l47.634-47.634 47.634 47.634c8.205 8.205 21.505 8.205 29.706 0 8.205-8.203 8.205-21.503 0-29.706l-56.636-56.639c0.056-0.515 0.303-0.966 0.303-1.5v-21.005h63.015c11.601 0 21.005-9.404 21.005-21.005 0-11.599-9.404-21.003-21.005-21.003h-63.015v-21.007h63.013z" />
<glyph unicode="&#xe92f;" glyph-name="minwater" data-tags="minwater" d="M511.977 143.426c-124.607 0-225.619 101.015-225.619 225.619 0 115.371 133.776 283.395 208.824 364.456-2.243-2.421 11.588 19.349 18.203 19.071 4.977-0.21 18.286-22.203 17.747-21.626 74.497-79.542 206.464-247.903 206.464-361.901-0.001-124.604-101.013-225.619-225.62-225.619zM526.296 668.945c-5.165 5.483-10.045 16.096-14.318 15.967-3.409-0.101-9.417-10.753-14.701-16.352-60.261-63.861-165.795-214.241-165.795-303.746 0-97.343 80.809-176.26 180.495-176.26s180.495 78.917 180.495 176.26c0.001 89.564-106.771 241.064-166.176 304.132zM511.977 256.241c-12.438 0-24.191 2.498-35.38 6.216-5.457 4.575-8.711 9.826-9.745 16.346-2.694 16.998 11.166 21.213 22.562 22.562 39.869-9.575 75.706 20.129 84.678 40.878 0 0 10.259 17.743 21.33 17.226 29.444-1.365 22.413-28.161 22.413-28.161-15.579-43.645-56.863-75.067-105.858-75.067z" />
<glyph unicode="&#xe930;" glyph-name="enter" data-tags="enter" d="M353.555 700.585l252.302-252.583-252.302-252.583c-11.891-11.9-11.891-31.17 0-43.070 5.945-5.945 13.73-8.924 21.515-8.924 7.788 0 15.576 2.979 21.518 8.924l273.814 274.12c5.945 5.948 8.918 13.739 8.918 21.533 0 7.791-2.973 15.585-8.918 21.533l-273.815 274.118c-5.942 5.945-13.73 8.921-21.518 8.921-7.785 0-15.57-2.976-21.515-8.921-11.89-11.899-11.89-31.173 0.001-43.070z" />
<glyph unicode="&#xe931;" glyph-name="fullstar" data-tags="fullstar" d="M1006.44 504.108c-6.779-10.036-14.562-21.409-22.695-33.235-44.611-65.825-103.749-150.332-120.729-174.543-0.707-34.201-3.596-166.777-7.060-246.879-1.149-26.856-9.879-46.866-25.293-60.211-0.24-0.251-0.407-0.569-0.653-0.815 0 0 0 0-0.018-0.021-0.901-0.901-1.985-1.789-3.005-2.681-0.013-0.011-0.021-0.027-0.035-0.035 0-0.003-0.005-0.003-0.008-0.005-12.954-11.368-35.248-21.371-71.63-11.454-76.937 21.066-207.018 59.791-243.334 70.654-36.318-10.863-166.397-49.588-243.337-70.654-36.381-9.917-58.676 0.086-71.63 11.454-0.003 0.003-0.005 0.003-0.008 0.005-0.013 0.008-0.021 0.025-0.035 0.035-1.017 0.893-2.102 1.781-3.005 2.681-0.016 0.021-0.016 0.021-0.016 0.021-0.249 0.246-0.412 0.564-0.656 0.815-15.414 13.345-24.141 33.357-25.291 60.211-3.464 80.101-6.353 212.678-7.060 246.879-16.982 24.211-76.117 108.718-120.729 174.543-8.133 11.826-15.917 23.199-22.695 33.235-12.835 18.983-16.489 41.449-10.059 61.622 1.667 5.187 4.796 11.036 8.808 16.955 0.272 0.458 0.343 0.996 0.626 1.451 0 0 0.429 0.378 1.103 0.915 7.864 10.599 19.906 21.234 40.168 28.778 8.994 3.355 18.767 6.96 28.984 10.707 7.262 4.699 14.451 8.001 14.451 8.001 74.647 26.712 167.524 58.817 194.304 68.043 14.732 18.741 60.039 76.29 103.442 130.653 18.684 23.68 37.022 46.774 52.305 65.691 3.828 4.745 8.282 8.851 13.063 12.528 3.569 2.908 7.44 5.233 11.43 7.378 0.359 0.189 0.679 0.432 1.042 0.615 4.513 2.328 9.236 4.079 14.157 5.414 0.491 0.137 0.963 0.308 1.457 0.434 3.876 0.966 7.823 1.551 11.881 1.888 1.349 0.14 2.63 0.561 3.993 0.634 1.131 0.059 2.191-0.211 3.31-0.196 1.119-0.013 2.18 0.256 3.307 0.196 1.362-0.073 2.643-0.493 3.995-0.634 4.054-0.338 8.004-0.923 11.881-1.888 0.493-0.127 0.963-0.297 1.454-0.434 4.923-1.335 9.647-3.086 14.157-5.414 0.364-0.183 0.686-0.427 1.044-0.615 3.987-2.145 7.861-4.47 11.427-7.378 4.78-3.677 9.234-7.782 13.065-12.528 15.282-18.916 33.621-42.011 52.302-65.691 43.406-54.363 88.712-111.912 103.442-130.653 26.782-9.226 119.657-41.33 194.306-68.043 0 0 7.187-3.302 14.449-8.001 10.219-3.747 19.992-7.351 28.986-10.707 20.262-7.545 32.305-18.179 40.168-28.778 0.671-0.537 1.103-0.915 1.103-0.915 0.283-0.456 0.351-0.993 0.623-1.451 4.014-5.919 7.144-11.767 8.808-16.955 6.425-20.173 2.775-42.638-10.060-61.622z" />
<glyph unicode="&#xe932;" glyph-name="star" data-tags="star" d="M828.367-15.156c-12.725-9.332-35.603-18.403-72.438-8.548-79.215 21.18-208.196 58.91-240.888 68.5-33.401-10.001-167.421-49.933-245.944-71.433-39.353-10.728-62.396 1.794-74.808 14.2-0.016 0.021-0.016 0.021-0.016 0.021-13.009 13.006-20.21 31.706-21.386 55.57-3.953 79.866-7.874 216.124-8.826 250.811-20.45 28.889-101.865 144.079-146.52 210.191-12.858 19.016-16.516 41.521-10.076 61.729 4.872 15.171 17.616 35.83 50.793 48.182 76.488 28.531 206.028 74.213 238.461 85.633 21.029 27.112 104.963 135.155 155.701 197.948 13.866 17.186 34.689 27.747 57.121 28.941 24.051 1.248 46.369-8.228 61.632-27.077 50.925-62.307 136.741-171.339 158.127-198.546 26.828-9.241 119.866-41.402 194.641-68.16 0 0 34.425-15.485 28.872-28.031-16.149-36.505-45.966-23.256-45.966-23.256-87.587 31.36-201.351 70.484-202.683 70.949-4.921 1.681-9.271 4.721-12.482 8.864-1.026 1.324-104.476 133.18-162.343 203.958-0.114 0.111-0.206 0.206-0.297 0.295-6.478 6.478-12.45 7.261-16.608 7.018-6.942-0.372-13.828-3.786-17.97-8.899-57.697-71.435-158.876-202.092-159.901-203.421-3.192-4.124-7.502-7.234-12.428-8.95-1.548-0.543-157.997-55.441-244.991-87.873-10.023-3.75-16.495-8.734-18.194-14.052-1.602-5.002 0.692-11.028 3.378-15.022 50.736-75.105 149.561-214.462 150.569-215.843 3.1-4.366 4.813-9.556 4.946-14.912 0.056-1.659 4.516-166.82 9.031-257.808 0.711-14.070 4.478-18.886 5.637-20.042 3.132-3.134 11.493-3.248 22.337-0.278 89.102 24.388 250.738 72.868 252.343 73.352 5.035 1.494 10.391 1.51 15.409 0.038 1.57-0.446 157.16-46.274 247.328-70.387 12.185-3.264 22.113-3.302 26.477-0.092 3.976 2.93 6.55 11.177 7.034 22.635 3.938 91.602 7.148 252.676 7.188 254.283 0.089 5.391 1.808 10.617 4.905 15.022 0.935 1.305 93.226 132.675 144.395 209.403 1.211 1.827 3.307 5.766 4.613 10.307 0 0-23.861 16.816 7.385 45.604 17.8 16.401 36.87-1.346 36.87-1.346 15.43-24.745 14.528-56.856-3.897-84.53-44.82-67.252-120.771-175.779-140.401-203.772-0.708-34.259-3.602-167.064-7.072-247.303-1.248-29.166-11.030-50.663-29.055-63.874z" />
<glyph unicode="&#xe933;" glyph-name="gps" data-tags="gps" d="M525.587-47.642c-3.99-3.149-8.798-4.731-13.609-4.731s-9.616 1.582-13.609 4.731c-14.776 11.627-361.864 332.791-361.864 620.697 0 206.959 168.447 375.318 375.473 375.318 207.028 0 375.473-168.359 375.473-375.318 0-287.904-347.089-609.070-361.864-620.697zM511.979 748.361c-96.766 0-175.21-78.444-175.21-175.21 0-96.764 78.444-175.207 175.21-175.207s175.21 78.445 175.21 175.207c-0.001 96.766-78.445 175.21-175.21 175.21z" />
<glyph unicode="&#xe934;" glyph-name="select" data-tags="select" d="M760.787 658.336l-369.669-369.445-127.946 127.721c-9.444 9.437-24.738 9.437-34.183 0-4.718-4.716-7.082-10.894-7.082-17.076 0-6.179 2.364-12.359 7.082-17.076l145.035-144.796c4.721-4.718 10.904-7.078 17.092-7.078 6.183 0 12.369 2.359 17.090 7.078l386.763 386.52c4.716 4.716 7.080 10.894 7.080 17.076s-2.364 12.359-7.080 17.076c-9.447 9.437-24.741 9.437-34.183 0z" />
<glyph unicode="&#xe935;" glyph-name="selected" data-tags="selected" d="M714.236 621.928l-293.094-292.855-111.419 111.177c-10.14 10.133-26.564 10.133-36.701 0-5.068-5.063-7.604-11.697-7.604-18.334s2.536-13.27 7.604-18.334l129.768-129.511c5.068-5.066 11.708-7.599 18.352-7.599 6.639 0 13.28 2.533 18.349 7.599l311.445 311.186c5.063 5.063 7.602 11.697 7.602 18.334s-2.538 13.27-7.602 18.337c-10.142 10.129-26.561 10.129-36.7-0.001z" />
<glyph unicode="&#xe936;" glyph-name="top" data-tags="top" d="M597.563 613.643c-5.212 5.212-12.038 7.819-18.868 7.819s-13.656-2.607-18.868-7.819c-10.423-10.423-10.423-27.311 0-37.734l133.433-133.433c10.423-10.423 27.311-10.423 37.734 0 10.426 10.423 10.426 27.314 0 37.734l-133.432 133.433zM508.85 672.803c-3.309 1.366-6.775 2.031-10.216 2.031-6.933 0-13.759-2.712-18.868-7.819l-186.806-186.807c-10.426-10.421-10.426-27.311 0-37.734 10.423-10.423 27.311-10.423 37.734 0l141.255 141.25v-442.622c0-14.737 11.948-26.684 26.684-26.684 14.75 0 26.687 11.948 26.687 26.684v507.045c0 10.79-6.49 20.522-16.471 24.656zM792.188 781.58h-560.42c-14.739 0-26.687-11.947-26.687-26.687 0-14.737 11.947-26.687 26.687-26.687h560.42c14.739 0 26.687 11.95 26.687 26.687 0 14.74-11.948 26.687-26.687 26.687z" />
<glyph unicode="&#xe937;" glyph-name="enterinto" data-tags="enterinto" d="M775.021 723.568l-526.086-275.565 225.464-50.103 50.106-225.467 250.516 551.135z" />
<glyph unicode="&#xe938;" glyph-name="username" data-tags="username" d="M710.417 219.712c-12.299-7.173-29.214-3.556-35.286 9.313-10.656 22.672-52.147 117.049-162.614 116.033-97.549-0.894-151.958-86.92-162.617-116.033-4.878-13.39-22.986-16.512-35.286-9.313-12.323 7.146-14.558 21.973-9.325 35.229 9.841 24.991 64.116 142.777 207.228 141.653 149.514-1.168 200.605-108.609 207.225-141.653 2.809-13.966 3-28.084-9.325-35.229zM513.324 422.365c-71.162 0-128.849 57.687-128.849 128.849 0 71.157 57.687 128.843 128.849 128.843 71.159 0 128.846-57.687 128.846-128.843 0-71.162-57.687-128.849-128.846-128.849zM513.324 628.518c-42.697 0-77.31-34.61-77.31-77.305 0-42.699 34.613-77.31 77.31-77.31 42.694 0 77.308 34.61 77.308 77.31-0.001 42.694-34.613 77.305-77.308 77.305z" />
<glyph unicode="&#xe939;" glyph-name="password" data-tags="password" d="M622.482 215.943h-221.005c-48.758 0-88.404 39.649-88.404 88.404v132.606c0 43.231 26.755 88.4 66.305 88.4v22.098c0 13.882-4.309 14.047 0 44.2 7.988 55.88 77.33 88.404 131.912 88.404 54.58 0 105.745-29.61 133.524-77.288 6.159-10.555 2.573-24.086-7.996-30.214-10.55-6.153-24.103-2.548-30.264 7.988-20.189 34.639-55.794 55.703-95.263 55.314-70.337-0.69-91.165-39.583-87.712-88.403v-22.098h198.904c48.756 0 88.403-39.645 88.403-88.4v-132.606c-0.003-48.756-39.649-88.404-88.404-88.404zM666.683 436.953c0 24.361-19.834 44.2-44.201 44.2h-221.005c-24.368 0-44.204-19.838-44.204-44.2v-132.606c0-24.366 19.835-44.201 44.204-44.201h221.005c24.368 0 44.201 19.835 44.201 44.201v132.606zM511.981 348.546c-12.206 0-22.101 9.894-22.101 22.101s9.894 22.101 22.101 22.101c12.204 0 22.101-9.894 22.101-22.101s-9.897-22.101-22.101-22.101z" />
<glyph unicode="&#xe93a;" glyph-name="follow" data-tags="follow" d="M744.035 513.951c0.004-0.501-0.111-1.042-0.117-1.549-0.059-2.688-0.239-5.409-0.624-8.192-0.325-2.549-0.865-5.153-1.442-7.767-0.091-0.394-0.166-0.783-0.263-1.178-13.829-59.239-89.214-134.123-153.713-189.129-0.698-0.597-1.534-0.895-2.323-1.303-33.532-28.651-60.437-48.793-65.894-52.834-1.181-0.971-2.423-1.713-3.851-2.162-0.754-0.272-1.524-0.383-2.307-0.499-0.436-0.047-0.836-0.274-1.274-0.274-0.086 0-0.166 0.038-0.252 0.038-0.084 0-0.166-0.038-0.25-0.038-0.438 0-0.84 0.227-1.274 0.274-0.783 0.117-1.552 0.227-2.307 0.499-1.431 0.448-2.671 1.192-3.851 2.162-5.456 4.042-32.364 24.185-65.894 52.834-0.792 0.407-1.627 0.705-2.323 1.303-64.498 55.007-139.883 129.89-153.712 189.129-0.097 0.395-0.173 0.785-0.265 1.178-0.575 2.614-1.114 5.217-1.439 7.767-0.387 2.781-0.564 5.503-0.624 8.192-0.009 0.509-0.122 1.048-0.12 1.549 0.002 0.108 0.002 0.203 0.004 0.309 0 0.015-0.004 0.031-0.004 0.047l0.011 1.663c0.115 17.574 0.206 32.752 4.117 46.894 14.677 53.047 57.092 83.689 116.374 84.074 0.398-0.002 0.787-0.086 1.185-0.091 0.25 0 0.477 0.048 0.73 0.047 44.073-0.244 83.899-26.108 109.641-71.067 25.745 44.959 65.571 70.824 109.644 71.067 0.25 0.002 0.477-0.047 0.73-0.047 0.398 0.004 0.787 0.088 1.185 0.091 59.279-0.385 101.694-31.027 116.374-84.074 3.911-14.143 4.001-29.32 4.115-46.894l0.010-1.663c0-0.015-0.004-0.031-0.002-0.047 0-0.105 0.001-0.201 0.001-0.309z" />
<glyph unicode="&#xe93b;" glyph-name="email" data-tags="email" d="M702.425 352.037c-11.831-11.655-32.944-18.377-51.44-18.377-39.786 0-57.759 17.311-66.97 28.936-38.655-37.608-92.508-49.922-134.257-25.818-52.424 30.266-65.477 105.799-29.157 168.705 36.318 62.909 108.259 89.367 160.683 59.103 52.422-30.268 65.477-105.799 29.157-168.707 1.236 2.144 4.73-6.867 14.684-10.961 46.501-19.119 58.149 7.151 65.763 21.921 24.962 48.437 1.856 179.808-87.683 211.762-109.289 38.999-192.869-1.883-236.618-69.277-52.187-80.384-54.8-211.683 39.33-266.562 60.892-35.503 128.25-26.652 155.524-20.308 12.888 2.996 33.769 15.669 41.764 12.859 20.191-7.103 15.755-28.771-21.921-43.839-11.11-4.445-105.712-39.552-197.288 13.319-115.332 66.587-125.288 212.549-55.378 326.452 66.569 108.46 195.791 133.644 296.508 85.325 120.070-57.608 144.729-238.087 77.3-304.535zM559.363 526.617c-31.454 18.16-76.581-1.115-100.795-43.055-24.213-41.937-18.344-90.658 13.111-108.817s76.581 1.118 100.795 43.055c24.212 41.939 18.345 90.659-13.111 108.817z" />
<glyph unicode="&#xe93c;" glyph-name="address" data-tags="address" d="M530.845 197.034c-13.040-14.821-27.894-12.302-41.090 0.891-13.654 13.654-200.008 175.269-200.008 288.905 0 122.735 99.495 222.233 222.233 222.233 122.734 0 222.231-99.498 222.231-222.233-0.001-112.284-188.089-272.436-203.367-289.796zM511.98 664.612c-98.19 0-177.787-77.732-177.787-173.614 0-88.16 97.308-162.477 155.562-226.404 19.564-21.472 21.916-22.363 44.446 0 60.574 60.111 155.564 138.186 155.564 226.404 0 95.882-79.599 173.614-177.785 173.614zM573.16 513.233c-10.234 23.672-33.753 40.264-61.182 40.264-36.822 0-66.669-29.85-66.669-66.669 0-36.822 29.848-66.671 66.669-66.671 27.431 0 50.948 16.592 61.182 40.264 0 0 16.338 7.025 27.71 4.182 10.096-2.524 15.376-14.954 15.376-14.954-15.345-42.988-56.010-73.939-104.269-73.939-61.37 0-111.116 49.748-111.116 111.118 0 61.368 49.747 111.113 111.116 111.113 48.26 0 88.924-30.948 104.269-73.936 0 0-4.869-12.329-15.376-14.956-11.023-2.756-27.71 4.184-27.71 4.184z" />
<glyph unicode="&#xe93d;" glyph-name="moreapp" data-tags="moreapp" d="M906.797-59.625h-225.611c-62.215 0-112.806 50.605-112.806 112.806v225.61c0 62.201 50.59 112.803 112.806 112.803h225.611c62.215 0 112.806-50.601 112.806-112.803v-225.611c0-62.201-50.591-112.805-112.806-112.805zM963.2 278.791c0 31.109-25.31 56.4-56.403 56.4h-225.612c-31.092 0-56.403-25.291-56.403-56.4v-225.611c0-31.106 25.31-56.403 56.403-56.403h225.611c31.092 0 56.403 25.297 56.403 56.403l0.001 225.611zM906.797 504.401h-225.611c-62.215 0-112.806 50.593-112.806 112.808v225.608c0 62.218 50.59 112.808 112.806 112.808h225.803c15.59 0 28.201-12.614 28.201-28.201 0-15.584-12.611-28.201-28.201-28.201h-225.803c-31.092 0-56.403-25.31-56.403-56.406v-225.608c0-31.092 25.31-56.403 56.403-56.403h225.611c31.092 0 56.403 25.31 56.403 56.403v197.601c0 15.59 12.614 28.201 28.201 28.201s28.201-12.611 28.201-28.201v-197.601c0.001-62.215-50.59-112.808-112.805-112.808zM342.769-59.625h-225.611c-62.215 0-112.803 50.605-112.803 112.806v225.61c0 62.201 50.588 112.803 112.803 112.803h225.611c62.215 0 112.806-50.601 112.806-112.803v-225.611c-0.001-62.201-50.591-112.805-112.806-112.805zM399.171 278.791c0 31.109-25.31 56.4-56.403 56.4h-225.611c-31.092 0-56.403-25.291-56.403-56.4v-225.611c0-31.106 25.31-56.403 56.403-56.403h225.611c31.092 0 56.403 25.297 56.403 56.403v225.611zM342.769 504.401h-225.611c-62.215 0-112.803 50.593-112.803 112.808v225.608c0 62.218 50.588 112.808 112.803 112.808h225.611c62.215 0 112.806-50.59 112.806-112.808v-225.608c-0.001-62.215-50.591-112.808-112.806-112.808zM399.171 842.817c0 31.095-25.31 56.406-56.403 56.406h-225.611c-31.092 0-56.403-25.31-56.403-56.406v-225.608c0-31.092 25.31-56.403 56.403-56.403h225.611c31.092 0 56.403 25.31 56.403 56.403v225.608z" />
<glyph unicode="&#xe93e;" glyph-name="pay" data-tags="pay" d="M912.731 287.699h-320.602c-58.94 0-106.871 47.928-106.871 106.866v106.868c0 58.943 47.931 106.871 106.871 106.871h320.602c58.94 0 106.871-47.928 106.871-106.871v-106.868c0-58.938-47.931-106.866-106.871-106.866zM966.168 501.433c0 29.456-23.978 53.437-53.437 53.437h-320.602c-29.456 0-53.437-23.981-53.437-53.437v-106.868c0-29.456 23.981-53.429 53.437-53.429h320.602c29.458 0 53.437 23.973 53.437 53.429v106.868zM645.56 421.281c-14.753 0-26.718 11.963-26.718 26.72s11.963 26.718 26.718 26.718c14.756 0 26.72-11.961 26.72-26.718 0-14.755-11.963-26.72-26.72-26.72zM912.731 661.738c0 0 0 0 0-0.003h-53.434c0 0.003 0 0.003 0 0.003v133.585c0 29.453-23.976 53.432-53.434 53.432h-694.64c-29.456 0-53.434-23.978-53.434-53.432v-694.647c0-29.456 23.978-53.432 53.434-53.432h694.641c29.458 0 53.434 23.976 53.434 53.432v133.585h53.434v-133.585c0-58.938-47.926-106.866-106.868-106.866h-694.641c-58.94 0-106.868 47.928-106.868 106.866v694.647c0 58.94 47.928 106.866 106.868 106.866h694.641c58.943 0 106.868-47.926 106.868-106.866v-133.585z" />
<glyph unicode="&#xe93f;" glyph-name="allorder" data-tags="allorder" d="M815.151-61.884h-606.346c-60.806 0-110.248 49.442-110.248 110.245v799.278c0 60.803 49.442 110.245 110.248 110.245h606.346c60.803 0 110.248-49.442 110.248-110.245v-799.278c0-60.803-49.445-110.245-110.248-110.245zM870.277 847.639c0 30.384-24.736 55.122-55.126 55.122h-606.346c-30.386 0-55.126-24.739-55.126-55.122v-799.278c0-30.389 24.739-55.122 55.126-55.122h606.346c30.389 0 55.126 24.733 55.126 55.122v799.278zM787.593 792.514c-15.222 0-27.564 12.342-27.564 27.564s12.342 27.562 27.564 27.562 27.559-12.339 27.559-27.562c0-15.223-12.336-27.564-27.559-27.564zM787.593 682.272c0-15.222-12.342-27.562-27.564-27.562h-496.103c-15.22 0-27.562 12.339-27.562 27.562s12.342 27.562 27.562 27.562h496.103c15.222 0 27.564-12.34 27.564-27.562zM236.364 792.514c-15.222 0-27.562 12.342-27.562 27.564s12.339 27.562 27.562 27.562c15.222 0 27.562-12.339 27.562-27.562s-12.34-27.564-27.562-27.564zM263.926 572.027h496.103c15.222 0 27.564-12.339 27.564-27.562s-12.342-27.564-27.564-27.564h-496.103c-15.22 0-27.562 12.342-27.562 27.564s12.342 27.562 27.562 27.562z" />
<glyph unicode="&#xe940;" glyph-name="minchest" data-tags="minchest" d="M684.129 487.727c-73.135 0-132.424 59.288-132.424 132.424 0 73.138 59.288 132.424 132.424 132.424s132.424-59.286 132.424-132.424c0-73.135-59.289-132.424-132.424-132.424zM684.129 699.607c-43.882 0-79.455-35.574-79.455-79.457 0-43.88 35.571-79.455 79.455-79.455 43.88 0 79.455 35.574 79.455 79.455s-35.575 79.457-79.455 79.457zM339.828 143.425c-73.135 0-132.424 59.288-132.424 132.424s59.288 132.424 132.424 132.424 132.424-59.288 132.424-132.424-59.289-132.424-132.424-132.424zM339.828 355.304c-43.882 0-79.455-35.572-79.455-79.455 0-43.88 35.572-79.452 79.455-79.452 43.88 0 79.455 35.571 79.455 79.452s-35.575 79.455-79.455 79.455zM339.828 487.727c-73.135 0-132.424 59.288-132.424 132.424 0 73.138 59.288 132.424 132.424 132.424s132.424-59.286 132.424-132.424c0-73.135-59.289-132.424-132.424-132.424zM339.828 699.607c-43.882 0-79.455-35.574-79.455-79.457 0-43.88 35.572-79.455 79.455-79.455 43.88 0 79.455 35.574 79.455 79.455s-35.575 79.457-79.455 79.457zM684.129 408.273c73.135 0 132.424-59.288 132.424-132.424s-59.288-132.424-132.424-132.424-132.424 59.288-132.424 132.424 59.289 132.424 132.424 132.424zM684.129 196.398c43.88 0 79.455 35.571 79.455 79.452s-35.574 79.455-79.455 79.455c-43.882 0-79.455-35.572-79.455-79.455 0-43.879 35.572-79.452 79.455-79.452z" />
<glyph unicode="&#xe941;" glyph-name="minscore2" data-tags="minscore" d="M812.038 236.862l-93.805-11.264-51.778-72.79c0 0-52.335 17.103-78.421 51.78l-56.755 98.3c-6.373-0.555-12.784-0.975-19.301-0.975s-12.929 0.421-19.303 0.975l-56.753-98.3c-26.086-34.678-78.423-51.78-78.423-51.78l-51.778 72.79-93.804 11.264c0 0-13.239 51.93 5.631 93.808l80.38 139.225c-4.145 16.903-6.588 34.476-6.588 52.659 0 121.855 98.783 220.638 220.638 220.638s220.638-98.783 220.638-220.638c0-18.183-2.442-35.756-6.59-52.659l80.382-139.225c18.871-41.879 5.63-93.808 5.63-93.808zM253.943 309.656c-13.566-26.086 0.393-26.792 7.693-28.708 23.671-6.211 65.099-18.952 65.099-18.952s28.42-21.437 44.088-44.088c7.325-10.588 13.929-14.432 28.704 7.695l49.406 85.572c-57.016 16.985-104.338 56.328-131.795 107.936l-63.195-109.456zM511.979 701.165c-98.645 0-178.612-79.967-178.612-178.612s79.967-178.612 178.612-178.612 178.612 79.967 178.612 178.612-79.967 178.612-178.612 178.612zM770.012 309.656l-63.193 109.456c-27.456-51.608-74.779-90.951-131.795-107.936l49.404-85.572c14.774-22.127 21.379-18.283 28.706-7.695 15.668 22.65 44.086 44.088 44.086 44.088s41.43 12.74 65.101 18.952c7.3 1.916 21.259 2.622 7.691 28.708zM605.070 454.611c13.976 19.107 22.482 42.455 22.482 67.942 0 63.83-51.745 115.572-115.572 115.572-63.83 0-115.572-51.742-115.572-115.572s51.742-115.572 115.572-115.572c19.839 0 38.223 5.459 54.535 14.266 14.442-5.256 27.594-13.151 36.048-27.529-25.64-18.063-56.836-28.763-90.584-28.763-87.038 0-157.598 70.56-157.598 157.599s70.56 157.598 157.598 157.598 157.599-70.56 157.599-157.598c0-36.876-12.764-70.718-33.983-97.564-23.94-3.988-31.56 6.046-30.525 29.621z" />
<glyph unicode="&#xe942;" glyph-name="minstore" data-tags="minstore" d="M811.765 490.161c2.76-17.492 4.786-36.697 4.786-56.812 0-2.429-23.429-4.871-23.429-7.322 0-40.965 0-83.945 0-118.608h0.002v-46.857h-0.002c0-14.566 0-23.421 0-23.421 0-51.686-42.029-93.715-93.715-93.715h-374.858c-51.688 0-93.717 42.029-93.717 93.715 0 0 0 98.41 0 187.423 0 3.434-23.429 6.853-23.429 10.25 0 19.689 1.973 38.474 4.677 55.609-2.818 8.832-4.677 18.078-4.677 27.862l46.857 164.003c0 51.686 42.029 70.289 93.717 70.289h327.999c51.686 0 93.715-18.603 93.715-70.289l46.857-164.003c0.001-9.885-1.913-19.211-4.785-28.123zM277.692 307.419h421.72c12.94 0 23.429-10.489 23.429-23.429s-10.489-23.429-23.429-23.429v0h-421.72c0-14.453 0-23.421 0-23.421 0-25.83 21.027-46.855 46.86-46.855h374.858c25.83 0 46.855 21.023 46.857 46.848h0.002v93.717h-0.002c0 16.555 0 33.697 0 51.159-7.362-2.617-15.167-4.304-23.429-4.304-30.558 0-56.299 19.622-65.98 46.86h-8.39c-7.22-20.397-23.541-36.457-44.128-43.271-0.113-0.038-0.22-0.084-0.335-0.122-3.121-1.014-6.344-1.781-9.644-2.355-0.661-0.118-1.328-0.206-1.996-0.305-3.308-0.476-6.661-0.808-10.098-0.808-3.439 0-6.792 0.333-10.098 0.808-0.67 0.098-1.337 0.187-1.999 0.305-3.296 0.574-6.521 1.341-9.644 2.355-0.113 0.038-0.223 0.084-0.335 0.124-20.587 6.811-36.905 22.871-44.128 43.268h-8.17c-7.22-20.397-23.539-36.457-44.126-43.268-0.115-0.040-0.222-0.087-0.338-0.124-3.121-1.014-6.347-1.781-9.641-2.355-0.663-0.118-1.33-0.206-1.999-0.305-3.308-0.476-6.661-0.808-10.098-0.808-3.439 0-6.792 0.333-10.098 0.808-0.67 0.098-1.335 0.189-1.999 0.305-3.296 0.574-6.523 1.341-9.644 2.355-0.115 0.038-0.222 0.087-0.338 0.124-20.587 6.811-36.905 22.871-44.126 43.268h-8.387c-9.684-27.238-35.424-46.86-65.985-46.86-8.259 0-16.067 1.686-23.429 4.304 0.002-25.837 0.002-51.841 0.002-74.591zM722.837 682.286c0 25.828-21.025 23.429-46.857 23.429h-328c-25.832 0-46.86 2.399-46.86-23.429l-33.468-117.141h488.655l-33.469 117.141zM746.265 518.288h-468.574c0 0-18.952-29.998-22.649-70.296h22.651c0-12.938 10.489-23.427 23.427-23.427 12.94 0 23.431 10.489 23.431 23.427 0 0 16.744 23.429 46.857 23.429s46.855-23.429 46.855-23.429c0-12.938 10.491-23.427 23.431-23.427s23.429 10.489 23.429 23.427c0 0 16.742 23.429 46.857 23.429 30.113 0 46.857-23.429 46.857-23.429 0-12.938 10.489-23.427 23.429-23.427 12.938 0 23.429 10.489 23.429 23.427 0 0 16.742 23.429 46.855 23.429 30.115 0 46.86-23.429 46.86-23.429 0-12.938 10.489-23.427 23.427-23.427 12.94 0 23.431 10.489 23.431 23.427h22.646c-3.695 40.298-22.647 70.296-22.647 70.296z" />
<glyph unicode="&#xe943;" glyph-name="minbasket" data-tags="minbasket" d="M834.886 530.91v0h-25.832l-25.832-284.158c0-57.067-46.261-103.327-103.33-103.327v0h-335.822c-57.069 0-103.33 46.261-103.33 103.327l-25.832 284.158h-25.832c-14.267 0-25.835 11.567-25.835 25.832 0 14.267 11.567 25.827 25.835 25.827v0h300.84l-68.348 129.17c0 0-9.852 6.35 0 25.832 12.653 25.027 51.665 14.267 51.665 0v0 0l81.845-155.002h279.81c14.267 0 25.832-11.56 25.832-25.827 0.001-14.265-11.564-25.832-25.831-25.832zM628.226 324.251l110.71 0.003 7.38 77.492h-118.091v-77.495zM679.891 195.091c28.535 0 51.665 23.128 51.665 51.663l3.689 25.832h-107.018v-77.495h51.665zM576.56 195.091v77.495h-129.162v-77.495h129.162zM576.56 401.746h-129.162v-77.495h129.163v77.495zM395.733 195.091v77.495h-107.021l3.691-25.832c0-28.535 23.131-51.663 51.665-51.663h51.666zM395.733 401.746h-118.091l7.38-77.492 110.71-0.003v77.495zM266.571 530.91l7.38-77.495 121.782-0.005v77.5h-129.162zM447.399 530.91v-77.5h129.163v77.5h-129.163zM628.226 453.41l121.78 0.005 7.38 77.495h-129.16v-77.5z" />
<glyph unicode="&#xe944;" glyph-name="minwallet" data-tags="minwallet" d="M753.099 321.095h-228.432c-55.993 0-101.525 45.534-101.525 101.523v50.765c0 55.993 45.532 101.525 101.525 101.525h228.432c55.994 0 101.525-45.532 101.525-101.525v-50.765c0-55.989-45.531-101.523-101.525-101.523zM803.862 473.383c0 27.98-22.777 50.763-50.763 50.763h-228.432c-27.98 0-50.763-22.782-50.763-50.763v-50.765c0-27.98 22.782-50.758 50.763-50.758h228.432c27.985 0 50.763 22.777 50.763 50.758v50.765zM575.431 422.618c-14.018 0-25.381 11.366-25.381 25.384s11.363 25.381 25.381 25.381 25.381-11.363 25.381-25.381c0-14.018-11.363-25.384-25.381-25.384zM803.862 600.289v0h-50.763v50.763c0 27.98-22.777 50.76-50.763 50.76h-431.479c-27.983 0-50.763-22.78-50.763-50.76v-406.104c0-27.98 22.78-50.76 50.763-50.76h431.48c27.985 0 50.763 22.78 50.763 50.76v50.765h50.763v-50.765c0-55.991-45.529-101.523-101.525-101.523h-431.481c-55.993 0-101.525 45.532-101.525 101.523v406.103c0 55.993 45.532 101.523 101.525 101.523h431.48c55.996 0 101.525-45.529 101.525-101.523v-50.762z" />
<glyph unicode="&#xe945;" glyph-name="more" data-tags="more" d="M196.427 548.405c-55.514 0-100.517-44.952-100.517-100.403s45.003-100.406 100.517-100.406 100.517 44.955 100.517 100.406c0 55.451-45.004 100.403-100.517 100.403zM511.979 548.405c-55.514 0-100.52-44.952-100.52-100.403s45.006-100.406 100.52-100.406 100.517 44.955 100.517 100.406c0 55.451-45.003 100.403-100.517 100.403zM827.53 548.405c-55.514 0-100.517-44.952-100.517-100.403s45.003-100.406 100.517-100.406 100.517 44.955 100.517 100.406c0 55.451-45.003 100.403-100.517 100.403z" />
<glyph unicode="&#xe946;" glyph-name="heart" data-tags="heart" d="M820.711 345.952l-213.415-196.48c-10.283-8.535-27.624-25.084-39.052-22.448-11.43 2.639-29.839 12.691-28.134 28.134 0.878 7.976 4.937 16.942 13.909 26.733l239.293 221.352c37.002 40.124 78.26 85.315 78.26 140.668 0 103.18-65.561 196.937-162.662 196.937-82.037 0-148.219-91.018-196.934-156.032-49.982 67.306-106.767 156.82-196.934 156.032-99.737-0.883-162.662-93.757-162.662-196.937 0-55.348 46.149-106.387 78.26-140.668l253.202-233.841c2.864-2.926 5.301-5.402 7.615-7.712 5.427-6.87 17.879-17.55 20.518-34.667 2.366-15.353-12.596-28.131-28.134-28.131 13.856 0-13.862 0.428-15.229 1.79l-265.374 245.272c-55.581 49.702-107.126 127.108-107.126 197.957 0 132.070 86.858 253.196 218.928 253.196 93.757 0 141.025-52.807 196.057-127.099 56.652 71.839 104.055 127.099 197.815 127.099 132.070 0 218.928-121.126 218.928-253.196 0-70.852-36.317-128.339-107.132-197.96z" />
<glyph unicode="&#xe947;" glyph-name="fullheart" data-tags="fullheart" d="M923.352 566.216c0.005-0.903-0.197-1.869-0.211-2.776-0.107-4.823-0.423-9.701-1.105-14.689-0.576-4.565-1.531-9.234-2.554-13.917-0.162-0.705-0.294-1.405-0.467-2.112-24.515-106.181-158.15-240.401-272.488-338.997-1.237-1.070-2.721-1.608-4.121-2.337-59.442-51.352-107.139-87.461-116.812-94.701-2.091-1.742-4.294-3.073-6.829-3.873-1.333-0.488-2.699-0.689-4.088-0.897-0.769-0.082-1.479-0.496-2.255-0.496-0.15 0-0.294 0.069-0.444 0.069s-0.297-0.069-0.444-0.069c-0.777 0-1.487 0.414-2.257 0.496-1.386 0.209-2.752 0.408-4.085 0.897-2.538 0.801-4.738 2.132-6.829 3.873-9.673 7.24-57.374 43.349-116.812 94.701-1.402 0.73-2.884 1.268-4.118 2.337-114.34 98.595-247.976 232.814-272.491 338.996-0.173 0.708-0.305 1.407-0.469 2.112-1.020 4.683-1.975 9.352-2.554 13.917-0.684 4.988-0.996 9.866-1.103 14.689-0.016 0.908-0.217 1.874-0.211 2.776 0.003 0.192 0.005 0.365 0.008 0.555 0 0.025-0.008 0.055-0.008 0.082l0.021 2.98c0.203 31.502 0.362 58.707 7.295 84.053 26.019 95.082 101.208 150.005 206.298 150.694 0.705 0 1.397-0.153 2.102-0.162 0.444 0 0.847 0.088 1.292 0.088 78.127-0.436 148.726-46.8 194.367-127.388 45.637 80.588 116.236 126.952 194.367 127.388 0.444 0 0.847-0.088 1.292-0.088 0.705 0.008 1.397 0.162 2.102 0.162 105.087-0.689 180.276-55.612 206.298-150.694 6.933-25.346 7.092-52.55 7.295-84.053l0.019-2.98c0-0.028-0.005-0.057-0.005-0.082-0.002-0.189 0.001-0.362 0.004-0.554z" />
<glyph unicode="&#xe948;" glyph-name="date" data-tags="date" d="M870.237-34.273h-716.515c-60.882 0-110.237 49.352-110.237 110.237v688.953c0 60.885 49.354 110.237 110.237 110.237h82.672v27.561c0 15.218 12.338 27.559 27.559 27.559s27.559-12.341 27.559-27.559v-27.561h440.933v27.561c0 15.218 12.338 27.559 27.559 27.559s27.559-12.341 27.559-27.559v-27.561h82.675c60.882 0 110.234-49.352 110.234-110.237v-688.953c0.001-60.885-49.352-110.237-110.234-110.237zM925.354 764.917c0 30.443-24.676 55.119-55.116 55.119h-82.675v-27.559c0-15.215-12.338-27.556-27.559-27.556s-27.559 12.341-27.559 27.556v27.559h-440.934v-27.559c0-15.215-12.338-27.556-27.559-27.556s-27.559 12.341-27.559 27.556v27.559h-82.672c-30.441 0-55.116-24.676-55.116-55.119v-55.116h826.749v55.116zM925.354 654.689h-826.749v-578.726c0-30.443 24.676-55.122 55.116-55.122h716.515c30.441 0 55.116 24.678 55.116 55.122v578.726zM704.887 213.758c15.221 0 27.559-12.341 27.559-27.559 0-15.221-12.338-27.561-27.559-27.561h-192.909c-15.221 0-27.559 12.341-27.559 27.561v165.348c0 15.221 12.338 27.559 27.559 27.559h165.35v110.234h-165.35c-15.221 0-27.559 12.341-27.559 27.561 0 15.218 12.338 27.556 27.559 27.556h192.909c15.221 0 27.559-12.338 27.559-27.556v-165.353c0-15.221-12.338-27.559-27.559-27.559h-165.349v-110.231h165.349zM374.186 158.639h-55.116c-15.221 0-27.559 12.341-27.559 27.561 0 15.218 12.338 27.559 27.559 27.559v236.611c-10.761-10.764-28.212-10.764-38.973 0-10.764 10.761-10.764 28.208 0 38.971l38.973 38.973c1.405 1.408 3.158 2.124 4.759 3.164 4.903 7.631 13.054 12.98 22.799 12.98 15.221 0 27.559-12.338 27.559-27.556v-303.142c15.221 0 27.559-12.341 27.559-27.559-0.001-15.22-12.339-27.561-27.56-27.561z" />
<glyph unicode="&#xe949;" glyph-name="edit" data-tags="edit" d="M124.15 21.25c-29.861-6.369-45.284 9.044-38.921 38.925l79.054 195.816 412.821 412.824c23.749 23.765 54.304 23.553 77.843 0l19.455-19.455c0.003 0 0.003-0.003 0.008-0.005 10.748-10.748 10.748-28.175 0-38.921-10.75-10.748-28.177-10.748-38.925 0v0.003l0.003-0.003c-18.453 19.689-20.297 19.851-38.925 0l-389.219-389.223-63.389-141.232 141.232 63.389 389.222 389.219c0.011 0.013 0.019 0.023 0.033 0.036l58.347 58.349c23.539-23.557 23.749-54.084 0.003-77.846l-412.824-412.823-195.819-79.051zM752.259 843.972c42.932 42.932 112.755 42.932 155.687 0 42.934-42.934 42.934-112.757 0-155.689l-97.307-97.307-155.689 155.687 97.309 97.309zM732.796 746.663l77.843-77.843 58.385 58.385c21.456 21.456 21.456 56.384 0 77.843-21.456 21.456-56.389 21.454-77.843 0l-58.385-58.385zM907.948 843.972c0 0 0 0-0.003 0v0h0.003z" />
<glyph unicode="&#xe94a;" glyph-name="share" data-tags="share" d="M760.648 565.79c-58.817 0-110.576 28.207-144.103 71.29l-182.943-109.379c8.104-20.694 12.936-43.046 12.936-66.612 0-31.874-8.868-61.392-23.181-87.5 1.057-0.437 2.188-0.489 3.207-1.079l189.981-113.59c33.526 43.082 85.285 71.29 144.103 71.29 101.196 0 183.23-82.034 183.23-183.23s-82.034-183.23-183.23-183.23-183.23 82.034-183.23 183.23c0 23.566 4.832 45.918 12.936 66.612l-189.965 113.582c-2.581 1.49-4.575 3.542-6.428 5.67-33.248-33.871-79.438-54.984-130.651-54.984-101.196 0-183.23 82.034-183.23 183.23s82.034 183.23 183.23 183.23c58.817 0 110.576-28.207 144.103-71.29l182.943 109.38c-8.104 20.694-12.936 43.046-12.936 66.612 0 101.196 82.034 183.23 183.23 183.23s183.227-82.035 183.227-183.231-82.034-183.231-183.229-183.231zM760.648 16.1c72.281 0 130.879 58.597 130.879 130.879s-58.597 130.879-130.879 130.879-130.879-58.597-130.879-130.879 58.597-130.879 130.879-130.879zM263.309 591.967c-72.281 0-130.879-58.597-130.879-130.879s58.597-130.879 130.879-130.879 130.879 58.597 130.879 130.879-58.598 130.879-130.879 130.879zM760.648 879.9c-72.281 0-130.879-58.597-130.879-130.879s58.597-130.879 130.879-130.879 130.879 58.597 130.879 130.879-58.599 130.879-130.879 130.879z" />
<glyph unicode="&#xe94b;" glyph-name="mingroup" data-tags="mingroup" d="M661.245 172.433h-298.535c-50.727 0-91.856 41.124-91.856 91.856v367.422c0 50.732 41.129 91.856 91.856 91.856h298.535c50.729 0 91.858-41.124 91.858-91.856v-367.422c0-50.732-41.129-91.856-91.858-91.856zM707.175 631.716h-0.002c-0.002 25.362-20.564 45.926-45.928 45.926h-298.535c-25.362 0-45.924-20.562-45.924-45.926v0-367.426c0-25.369 20.559-45.93 45.924-45.93h298.535c25.364 0 45.928 20.562 45.928 45.93v45.928h0.002v321.498zM661.247 516.891h-91.856v-183.71c-22.248-58.648-76.392-62.223-89.309-64.377-12.917-2.152-28.025-1.286-25.513 18.447 1.606 12.585 4.88 11.521 16.001 14.031 0 0 50.592 6.634 52.893 54.864v99.694c-7.35-10.78-16.162-22.030-27.538-33.406-53.481-53.483-107.699-61.771-107.699-61.771-8.969-8.967-23.508-8.967-32.478 0-8.967 8.967-8.967 23.506 0 32.474 0 0 52.296 6.368 104.831 58.903 23.145 23.145 37.245 46.068 46.164 64.853h-121.064c-12.683 0-22.964 10.283-22.964 22.964 0 12.685 10.281 22.966 22.964 22.966h137.784v68.892c0 12.681 10.281 22.964 22.964 22.964s22.964-10.283 22.964-22.964v-68.892h91.856c12.683 0 22.964-10.281 22.964-22.966 0-12.681-10.281-22.964-22.964-22.964z" />
<glyph unicode="&#xe94c;" glyph-name="minonsale" data-tags="minonsale" d="M767.095 676.432h-228.433v-25.379h101.523c56.068 0 101.525-45.453 101.525-101.523 0-37.743-20.833-70.289-51.395-87.786 11.018-3.685 24.211-10.378 37.047-23.214 29.727-29.727 27.572-62.167 27.572-62.167 3.182-26.737-13.744-55.309-35.895-35.895-17.595 15.419-12.657 25.019-13.064 36.851-4.254-3.213-9.288-5.464-15.026-5.464h-152.288v-25.384c0-13.982-11.318-25.307-25.29-25.362 3.645-2.738 7.313-5.86 10.939-9.49 29.727-29.724 27.572-62.164 27.572-62.164 3.182-26.739-13.744-55.309-35.895-35.895-28.458 24.942 2.094 34.623-26.511 63.225-28.602 28.604-38.283-1.946-63.225 26.511-19.414 22.153 9.158 39.077 35.895 35.897 0 0 13.026 0.802 30.108-6.107-2.52 3.944-4.355 8.358-4.355 13.384v25.384h-203.055c-14.015 0-25.379 11.363-25.379 25.381s11.363 25.381 25.379 25.381h203.054v25.386h-101.53c-56.068 0-101.525 45.45-101.525 101.525 0 56.070 45.458 101.523 101.525 101.523h101.53v25.379h-228.433c-14.018 0-25.381 11.363-25.381 25.381s11.363 25.381 25.381 25.381h228.433c0 14.018 11.363 25.381 25.381 25.381s25.381-11.363 25.381-25.381h228.433c14.018 0 25.381-11.363 25.381-25.381s-11.362-25.379-25.38-25.379zM640.185 600.289h-101.523v-25.384h145.245c-8.794 15.112-24.98 25.384-43.722 25.384zM640.185 498.764c18.737 0 34.922 10.269 43.72 25.379h-145.243v-25.379h101.523zM538.662 422.617h98.759c-2.548 1.901-5.211 4.269-8.117 7.587-5.746 6.556-6.932 12.546-5.564 17.8h-85.079v-25.387zM386.369 498.764h101.53v25.379h-145.248c8.793-15.11 24.976-25.379 43.718-25.379zM335.609 549.529v0c0-0.005 0.002-0.007 0.002-0.012v0.026c0-0.003-0.002-0.008-0.002-0.013v0 0zM386.369 600.289c-18.742 0-34.927-10.272-43.722-25.384h145.253v25.384h-101.531zM741.711 549.527c0 0 0 0 0 0.002v0-0.002zM284.843 549.529v0c0-0.002 0-0.002 0-0.002v0.002zM287.843 246.678c15.465 30.272-6.023 49.138 9.241 67.931 11.944 14.706 43.288-3.489 43.963-25.379 0 0 10.475-30.778-10.543-67.182-21.019-36.407-52.91-42.724-52.91-42.724-25.003-9.993-54.354-2.178-43.963 25.384 5.622 14.907 35.808 5.948 54.212 41.97zM386.374 321.092c24.587 0 25.379-25.381 25.379-25.381v-50.758c0-28.039 22.727-50.765 50.76-50.765h126.909c28.031 0 50.763-2.654 50.763 25.384v0 0c0 0 0.66 25.381 27.498 25.381 19.879 0 23.265-25.381 23.265-25.381 0-56.073-45.458-76.144-101.525-76.144h-126.91c-56.070 0-101.528 45.453-101.528 101.525v50.758c0 0 0.005 25.381 25.389 25.381zM654.686 277.915c-19.414 22.15 9.156 39.077 35.895 35.895 0 0 32.44 2.155 62.164-27.572 29.727-29.724 27.572-62.164 27.572-62.164 3.182-26.737-13.744-55.309-35.895-35.895-28.458 24.94 2.092 34.623-26.511 63.225-28.602 28.604-38.283-1.947-63.225 26.511z" />
<glyph unicode="&#xe94d;" glyph-name="minsales" data-tags="minsales" d="M701.148 200.438c14.794-1.047-13.512-0.528 86.439 0 0 0 28.765-2.735 28.343-27.458-0.456-26.679-28.343-27.46-28.343-27.46-96.591-0.052-70.437-9.556-139.848 12.371-64.631 20.415-104.538 50.594-128.831 80.868-2.144-4.183-4.41-8.061-6.93-11.199-23.219-28.925-1.378-6.322-68.008-72.88 0 0-47.417-18.665-66.712 0-17.88 17.3 0 39.080 0 39.080 25.877 25.593 64.129 36.021 67.806 39.613-1.942-1.862-4.466-4.206-1.094-0.536 35.861 39.044 35.534 105.469 40.376 135.938v52.208c0 15.259 12.371 27.629 27.632 27.629s27.632-12.371 27.632-27.629v-55.267c0-2.686-0.816-5.121-1.531-7.577-0.091-2.329-0.291-4.723-0.434-7.087 10.597-37.478 32.446-91.55 57.228-110.033v262.866h-27.634c-60.959 0-110.528 49.569-110.528 110.525v27.634c0 60.961 49.569 110.53 110.528 110.53h110.528c60.959 0 110.528-49.569 110.528-110.53v-27.634c0-60.956-49.569-110.525-110.528-110.525h-27.629v-55.272h110.528c15.262 0 27.632-12.371 27.632-27.629 0-15.262-12.371-27.634-27.632-27.634h-110.53v-181.368c21.871-7.678 40.992-10.831 51.012-11.543zM677.765 559.15c30.467 0 55.264 24.797 55.264 55.259v27.634c0 30.464-24.797 55.264-55.264 55.264h-110.528c-30.462 0-55.264-24.8-55.264-55.264v-27.634c0-30.462 24.803-55.259 55.264-55.259h110.528zM346.183 172.292c0-15.259-12.371-27.632-27.632-27.632s-27.632 12.374-27.632 27.632v289.793c-16.377-16.237-36.29-29.116-55.264-33.573 0 0-27.632-8.508-27.632 28.734 0 20.157 27.632 34.491 27.632 34.491 9.702 6.853 20.23 13.385 27.707 23.111 31.572 41.072 50.84 116.085 70.169 210.084 0 0-0.135 28.044 24.741 27.634 26.844-0.447 30.613-27.634 30.613-27.634-12.725-69.362-23.913-124.93-42.703-172.496v-380.145z" />
<glyph unicode="&#xe94e;" glyph-name="minqueuing" data-tags="minqueuing" d="M783.861 593.665h-105.939v-79.455h79.455c14.627 0 26.485-11.857 26.485-26.485s-11.857-26.485-26.485-26.485h-79.455v-79.455h105.939c14.627 0 26.485-11.855 26.485-26.485 0-14.627-11.857-26.482-26.485-26.482h-105.939v-158.911c0-14.627-11.857-26.482-26.485-26.482s-26.485 11.855-26.485 26.482v556.182c0 14.627 11.857 26.487 26.485 26.487s26.485-11.86 26.485-26.487v-79.452h105.939c14.627 0 26.485-11.86 26.485-26.487 0-14.625-11.857-26.485-26.485-26.485zM519.014 143.426c-14.627 0-26.485 11.855-26.485 26.482v158.911h-105.939c-14.627 0-26.485 11.855-26.485 26.482 0 14.63 11.857 26.485 26.485 26.485h105.939v79.455h-75.145c-1.192-1.006-2.087-2.265-3.485-3.072l-53.793-31.058v-18.839c0-0.003-0.003-0.003-0.003-0.005v-158.895c-25.655-67.64-88.105-71.765-102.999-74.247-14.897-2.485-32.322-1.481-29.424 21.276 1.849 14.51 5.625 13.288 18.452 16.183 0 0 58.351 7.651 61.005 63.272v120.672l-53.793-31.056c-12.668-7.313-28.865-2.972-36.178 9.694-7.315 12.668-2.974 28.865 9.694 36.181l80.278 46.349v135.97h-52.969c-14.627 0-26.485 11.86-26.485 26.485 0 14.627 11.857 26.487 26.485 26.487h52.969v79.452c0 14.627 11.857 26.487 26.485 26.487 14.627 0 26.485-11.86 26.485-26.487v-79.452h132.424v79.452c0 14.627 11.857 26.487 26.485 26.487s26.485-11.86 26.485-26.487v-556.179c-0.004-14.628-11.861-26.483-26.488-26.483zM492.529 593.665h-132.424v-105.388l27.308 15.766c2.18 1.258 4.537 1.721 6.862 2.307 4.801 4.844 11.439 7.861 18.799 7.861h79.455v79.455z" />
<glyph unicode="&#xe94f;" glyph-name="minbook" data-tags="minbook" d="M804.855 668.89h-111.575v-446.279c-27.020-71.235-92.789-75.581-108.476-78.195-15.689-2.617-34.040-1.56-30.989 22.406 1.947 15.283 5.925 13.994 19.433 17.042 0 0 61.454 8.059 64.248 66.637v418.389h-167.358c-15.405 0-27.893 12.487-27.893 27.893s12.487 27.893 27.893 27.893h334.716c15.405 0 27.893-12.487 27.893-27.893s-12.488-27.893-27.893-27.893zM458.929 264.443c7.701-13.344 3.129-30.4-10.212-38.105l-96.624-55.786c-2.901-1.676-5.966-2.614-9.074-3.051-2.956-0.527-5.86-0.388-8.781 0.034v0c-1.219-0.162-2.301-0.719-3.565-0.719-15.405 0-27.893 12.49-27.893 27.895v334.716h-83.679c-15.405 0-27.893 12.485-27.893 27.89s12.487 27.893 27.893 27.893h111.573c15.405 0 27.893-12.487 27.893-27.893v-318.61l62.257 35.946c13.34 7.7 30.399 3.129 38.104-10.21zM337.145 644.734l-96.624 55.786c-13.341 7.704-17.913 24.761-10.209 38.102 7.701 13.344 24.761 17.913 38.102 10.212l96.624-55.786c13.341-7.704 17.913-24.763 10.209-38.105-7.699-13.338-24.76-17.909-38.102-10.209z" />
</font>
</defs>
</svg>
